<svg width="54" height="36" viewBox="0 0 54 36" fill="none" xmlns="http://www.w3.org/2000/svg">
<path d="M7 0.5H36C45.665 0.5 53.5 8.33502 53.5 18C53.5 27.665 45.665 35.5 36 35.5H7C6.17157 35.5 5.5 34.8284 5.5 34V2C5.5 1.17157 6.17157 0.5 7 0.5Z" fill="#ABDC85" stroke="#3E671E"/>
<path d="M17.4972 22H15.5199L18.5327 13.2727H20.9105L23.919 22H21.9418L19.7557 15.267H19.6875L17.4972 22ZM17.3736 18.5696H22.044V20.0099H17.3736V18.5696ZM32.2692 13.2727V22H30.6754L26.8786 16.5071H26.8146V22H24.9695V13.2727H26.5888L30.3558 18.7614H30.4325V13.2727H32.2692ZM36.8874 22H33.7937V13.2727H36.913C37.7908 13.2727 38.5465 13.4474 39.18 13.7969C39.8136 14.1435 40.3008 14.642 40.6417 15.2926C40.9854 15.9432 41.1573 16.7216 41.1573 17.6278C41.1573 18.5369 40.9854 19.3182 40.6417 19.9716C40.3008 20.625 39.8107 21.1264 39.1715 21.4759C38.5352 21.8253 37.7738 22 36.8874 22ZM35.6388 20.419H36.8107C37.3562 20.419 37.815 20.3224 38.1871 20.1293C38.5621 19.9332 38.8434 19.6307 39.0309 19.2216C39.2212 18.8097 39.3164 18.2784 39.3164 17.6278C39.3164 16.983 39.2212 16.456 39.0309 16.0469C38.8434 15.6378 38.5636 15.3366 38.1914 15.1435C37.8192 14.9503 37.3604 14.8537 36.815 14.8537H35.6388V20.419Z" fill="#3E671E"/>
</svg>
