<svg width="49" height="73" viewBox="0 0 49 73" fill="none" xmlns="http://www.w3.org/2000/svg">
<g clip-path="url(#clip0_1277_70)">
<path d="M2 0.5H31C40.665 0.5 48.5 8.33502 48.5 18C48.5 27.665 40.665 35.5 31 35.5H2C1.17157 35.5 0.5 34.8284 0.5 34V2C0.5 1.17157 1.17157 0.5 2 0.5Z" fill="#A7DE7C" stroke="#3E671E"/>
<g filter="url(#filter0_i_1277_70)">
<path d="M11.7772 22H9.79989L12.8127 13.2727H15.1905L18.199 22H16.2218L14.0357 15.267H13.9675L11.7772 22ZM11.6536 18.5696H16.324V20.0099H11.6536V18.5696ZM27.2692 13.2727V22H25.6754L21.8786 16.5071H21.8146V22H19.9695V13.2727H21.5888L25.3558 18.7614H25.4325V13.2727H27.2692ZM32.6074 22H29.5137V13.2727H32.633C33.5108 13.2727 34.2665 13.4474 34.9 13.7969C35.5336 14.1435 36.0208 14.642 36.3617 15.2926C36.7054 15.9432 36.8773 16.7216 36.8773 17.6278C36.8773 18.5369 36.7054 19.3182 36.3617 19.9716C36.0208 20.625 35.5307 21.1264 34.8915 21.4759C34.2552 21.8253 33.4938 22 32.6074 22ZM31.3589 20.419H32.5307C33.0762 20.419 33.535 20.3224 33.9071 20.1293C34.2821 19.9332 34.5634 19.6307 34.7509 19.2216C34.9412 18.8097 35.0364 18.2784 35.0364 17.6278C35.0364 16.983 34.9412 16.456 34.7509 16.0469C34.5634 15.6378 34.2836 15.3366 33.9114 15.1435C33.5392 14.9503 33.0804 14.8537 32.535 14.8537H31.3589V20.419Z" fill="#3E671E"/>
</g>
<path d="M0.825297 72.5C0.94093 72.2707 1.07852 71.9918 1.23268 71.6681C1.70657 70.6729 2.33773 69.2527 2.96887 67.5487C4.22862 64.1473 5.5 59.584 5.5 55C5.5 50.416 4.22862 45.8527 2.96887 42.4513C2.33773 40.7473 1.70657 39.3271 1.23268 38.3319C1.07852 38.0082 0.94093 37.7293 0.825297 37.5H21.7358C31.6642 37.5 40.8771 42.6669 46.0543 51.1387L48.414 55L46.0543 58.8613C40.8771 67.3331 31.6642 72.5 21.7358 72.5H0.825297Z" fill="#93D6FF" stroke="#10479E"/>
<g filter="url(#filter1_i_1277_70)">
<path d="M22.9076 54.6364C22.9076 55.5881 22.7272 56.3977 22.3664 57.0653C22.0084 57.733 21.5198 58.2429 20.9004 58.5952C20.284 58.9446 19.5908 59.1193 18.8209 59.1193C18.0453 59.1193 17.3493 58.9432 16.7328 58.5909C16.1164 58.2386 15.6291 57.7287 15.2712 57.0611C14.9132 56.3935 14.7343 55.5852 14.7343 54.6364C14.7343 53.6847 14.9132 52.875 15.2712 52.2074C15.6291 51.5398 16.1164 51.0312 16.7328 50.6818C17.3493 50.3295 18.0453 50.1534 18.8209 50.1534C19.5908 50.1534 20.284 50.3295 20.9004 50.6818C21.5198 51.0312 22.0084 51.5398 22.3664 52.2074C22.7272 52.875 22.9076 53.6847 22.9076 54.6364ZM21.0368 54.6364C21.0368 54.0199 20.9445 53.5 20.7598 53.0767C20.578 52.6534 20.3209 52.3324 19.9885 52.1136C19.6561 51.8949 19.2669 51.7855 18.8209 51.7855C18.3749 51.7855 17.9857 51.8949 17.6533 52.1136C17.3209 52.3324 17.0624 52.6534 16.8777 53.0767C16.6959 53.5 16.605 54.0199 16.605 54.6364C16.605 55.2528 16.6959 55.7727 16.8777 56.196C17.0624 56.6193 17.3209 56.9403 17.6533 57.1591C17.9857 57.3778 18.3749 57.4872 18.8209 57.4872C19.2669 57.4872 19.6561 57.3778 19.9885 57.1591C20.3209 56.9403 20.578 56.6193 20.7598 56.196C20.9445 55.7727 21.0368 55.2528 21.0368 54.6364ZM24.7544 59V50.2727H28.1976C28.8567 50.2727 29.4192 50.3906 29.8851 50.6264C30.3538 50.8594 30.7103 51.1903 30.9547 51.6193C31.2018 52.0455 31.3254 52.5469 31.3254 53.1236C31.3254 53.7031 31.2004 54.2017 30.9504 54.6193C30.7004 55.0341 30.3382 55.3523 29.8638 55.5739C29.3922 55.7955 28.8211 55.9062 28.1507 55.9062H25.8453V54.4233H27.8524C28.2047 54.4233 28.4973 54.375 28.7302 54.2784C28.9632 54.1818 29.1365 54.0369 29.2501 53.8438C29.3666 53.6506 29.4248 53.4105 29.4248 53.1236C29.4248 52.8338 29.3666 52.5895 29.2501 52.3906C29.1365 52.1918 28.9618 52.0412 28.726 51.9389C28.493 51.8338 28.199 51.7812 27.8439 51.7812H26.5996V59H24.7544ZM29.4675 55.0284L31.6365 59H29.5996L27.4774 55.0284H29.4675Z" fill="#165BC9"/>
</g>
</g>
<defs>
<filter id="filter0_i_1277_70" x="9.7998" y="13.2727" width="27.5776" height="9.22729" filterUnits="userSpaceOnUse" color-interpolation-filters="sRGB">
<feFlood flood-opacity="0" result="BackgroundImageFix"/>
<feBlend mode="normal" in="SourceGraphic" in2="BackgroundImageFix" result="shape"/>
<feColorMatrix in="SourceAlpha" type="matrix" values="0 0 0 0 0 0 0 0 0 0 0 0 0 0 0 0 0 0 127 0" result="hardAlpha"/>
<feOffset dx="0.5" dy="0.5"/>
<feGaussianBlur stdDeviation="0.5"/>
<feComposite in2="hardAlpha" operator="arithmetic" k2="-1" k3="1"/>
<feColorMatrix type="matrix" values="0 0 0 0 0 0 0 0 0 0 0 0 0 0 0 0 0 0 0.59 0"/>
<feBlend mode="normal" in2="shape" result="effect1_innerShadow_1277_70"/>
</filter>
<filter id="filter1_i_1277_70" x="14.7344" y="50.1534" width="17.4023" height="9.46582" filterUnits="userSpaceOnUse" color-interpolation-filters="sRGB">
<feFlood flood-opacity="0" result="BackgroundImageFix"/>
<feBlend mode="normal" in="SourceGraphic" in2="BackgroundImageFix" result="shape"/>
<feColorMatrix in="SourceAlpha" type="matrix" values="0 0 0 0 0 0 0 0 0 0 0 0 0 0 0 0 0 0 127 0" result="hardAlpha"/>
<feOffset dx="0.5" dy="0.5"/>
<feGaussianBlur stdDeviation="0.5"/>
<feComposite in2="hardAlpha" operator="arithmetic" k2="-1" k3="1"/>
<feColorMatrix type="matrix" values="0 0 0 0 0 0 0 0 0 0 0 0 0 0 0 0 0 0 1 0"/>
<feBlend mode="normal" in2="shape" result="effect1_innerShadow_1277_70"/>
</filter>
<clipPath id="clip0_1277_70">
<rect width="49" height="73" fill="white"/>
</clipPath>
</defs>
</svg>
