<svg width="24" height="24" viewBox="0 0 24 24" fill="none" xmlns="http://www.w3.org/2000/svg">
<path d="M11.5 1C6.77778 1 3 4.81818 3 9.59091V16.2727C3 17.0322 3.29851 17.7606 3.82986 18.2976C4.36122 18.8347 5.08189 19.1364 5.83333 19.1364H8.66667V11.5H4.88889V9.59091C4.88889 7.81878 5.58541 6.11923 6.82524 4.86615C8.06506 3.61307 9.74662 2.90909 11.5 2.90909C13.2534 2.90909 14.9349 3.61307 16.1748 4.86615C17.4146 6.11923 18.1111 7.81878 18.1111 9.59091V11.5H14.3333V19.1364H18.1111V20.0909H11.5V22H17.1667C17.9181 22 18.6388 21.6983 19.1701 21.1613C19.7015 20.6242 20 19.8958 20 19.1364V9.59091C20 4.81818 16.1939 1 11.5 1Z" fill="#1763A0"/>
</svg>
