<svg width="56" height="56" viewBox="0 0 56 56" fill="none" xmlns="http://www.w3.org/2000/svg">
<circle cx="28" cy="28" r="27.5" fill="#FF4243" stroke="black"/>
<circle cx="28" cy="28" r="24" fill="white"/>
<path fill-rule="evenodd" clip-rule="evenodd" d="M30 53L30 3L33 3L33 53L30 53Z" fill="#FF4243"/>
<path fill-rule="evenodd" clip-rule="evenodd" d="M18.9927 9.65904C19.7053 8.36173 20.8707 7.46667 22.4655 7L22.9971 7.93333C21.9339 8.86667 21.141 9.29372 20.8707 10.2667C20.3805 11.1589 20.5544 12.6292 20.5517 14.0019C20.5459 16.9284 21.6801 20.6343 23.0852 25.2252L23.1506 25.4389C24.5653 30.0623 26.1885 35.4438 26.9235 41.413C27.2183 43.8064 26.6317 45.5819 25.6665 46.9059C24.7204 48.2036 23.2948 48.5147 22.4655 49L20.8707 48.0667C22.2416 47.3725 23.163 46.2349 23.5287 45.7333C24.1582 44.8698 24.6235 43.5771 24.3866 41.6537C23.6753 35.8773 22.1026 30.6486 20.6862 26.02C20.6398 25.8683 20.5935 25.7171 20.5473 25.5663C19.2054 21.1848 17.9937 17.2283 18 13.9981C18.0032 12.4033 18.2882 10.9415 18.9927 9.65904Z" fill="#FF4243"/>
<path fill-rule="evenodd" clip-rule="evenodd" d="M16.5691 27.6785C16.5506 27.9461 16.5287 28.2144 16.5017 28.4825C16.4404 29.0932 16.4244 29.7044 16.4244 30.341C16.4244 30.5108 16.429 30.6845 16.4339 30.8718C16.4346 30.8984 16.4353 30.9253 16.436 30.9525C16.4415 31.1663 16.4466 31.3954 16.443 31.6269C16.436 32.0869 16.3951 32.5971 16.235 33.0959C16.1491 33.3634 15.9781 33.6689 15.8543 33.89C15.8286 33.9359 15.805 33.9781 15.7846 34.0156C15.7121 34.1486 15.6575 34.2569 15.6204 34.3493C15.5833 34.4417 15.5793 34.4808 15.5791 34.4814C15.5791 34.4814 15.5791 34.4815 15.5791 34.4814C15.5623 34.9113 15.4841 35.3271 15.4173 35.6826C15.414 35.7001 15.4107 35.7175 15.4075 35.7347C15.3351 36.1209 15.2784 36.4416 15.2724 36.7568C15.2402 38.4308 14.3694 40.0747 13.6262 41.2884C13.6274 41.2864 13.6278 41.2859 13.627 41.2874C13.6251 41.2908 13.617 41.3052 13.6002 41.3368C13.5801 41.3746 13.5545 41.4236 13.5244 41.4816C13.5104 41.5084 13.4956 41.537 13.4801 41.5668C13.4298 41.6636 13.3727 41.7735 13.3172 41.8787C13.2459 42.014 13.1697 42.1556 13.1083 42.2602C13.0818 42.3054 13.0402 42.3746 12.9945 42.4344C12.9815 42.4515 12.9607 42.4776 12.9337 42.5062C12.9144 42.5268 12.8554 42.5884 12.7641 42.6429C12.7121 42.6739 12.3766 42.8664 12.0002 42.6494C11.6675 42.4576 11.6318 42.1232 11.6269 42.0772L11.6267 42.0753C11.6149 41.9671 11.5934 41.851 11.5649 41.7066C11.5619 41.6915 11.5589 41.6759 11.5557 41.6599C11.5307 41.5343 11.501 41.3846 11.4802 41.2358C11.4406 40.9533 11.4124 40.7011 11.3854 40.4601C11.3463 40.1116 11.3099 39.7863 11.2456 39.4257C11.2419 39.4047 11.2157 39.328 11.0847 39.191C10.9566 39.057 10.7949 38.9321 10.6066 38.788C10.6072 38.7885 10.6055 38.7871 10.6003 38.7834L10.5795 38.7689C10.5654 38.7592 10.5506 38.7492 10.5322 38.7367C10.5255 38.7322 10.5184 38.7273 10.5107 38.7221C10.4573 38.6859 10.3842 38.636 10.311 38.5805C10.2406 38.5271 10.1493 38.4531 10.0659 38.364C9.99799 38.2914 9.85362 38.1251 9.80063 37.8817C9.72949 37.555 9.70221 37.2173 9.67958 36.9373C9.67638 36.8977 9.67328 36.8593 9.67016 36.8222C9.64291 36.4986 9.61305 36.2449 9.54327 36.017C9.47868 35.806 9.45328 35.7596 9.44007 35.7393C9.43254 35.7277 9.41146 35.6959 9.28741 35.5953C9.25083 35.5833 9.20486 35.5723 9.11521 35.5518L9.10696 35.5499C9.03334 35.533 8.91629 35.5062 8.80366 35.4663C8.69039 35.4262 8.50575 35.3481 8.34664 35.1857C8.09718 34.9311 7.93937 34.5906 7.83246 34.2964C7.71972 33.9861 7.63406 33.6418 7.56679 33.3141C7.55005 33.2325 7.53407 33.1498 7.51881 33.0668C7.26278 33.4712 7.05007 33.8126 6.89821 34.2466C6.62251 35.0346 6.17125 35.721 5.39628 36.2034C5.04461 36.4222 4.5821 36.3146 4.36323 35.9629C4.14436 35.6112 4.25202 35.1487 4.60368 34.9299C5.02254 34.6692 5.2911 34.2979 5.48238 33.7512C5.7005 33.1279 6.02495 32.6185 6.29255 32.1985C6.33913 32.1253 6.38398 32.0549 6.42625 31.9871C6.72011 31.5155 6.93528 31.108 7.0175 30.5724C7.01753 30.5679 7.01764 30.5535 7.01653 30.5233C7.01637 30.5188 7.01615 30.5132 7.0159 30.5068C7.01499 30.4838 7.01366 30.4501 7.01306 30.4201C7.01221 30.3778 7.01217 30.3232 7.01642 30.2625C7.01916 30.2233 7.02454 30.1633 7.03827 30.0989C7.0449 30.0678 7.05849 30.0111 7.08617 29.9459C7.10537 29.9006 7.17514 29.7412 7.3493 29.6182C7.44973 29.5472 7.58525 29.4887 7.74717 29.4805C7.90638 29.4724 8.03959 29.5155 8.135 29.5652C8.30236 29.6524 8.38981 29.7779 8.41537 29.8154C8.47732 29.9064 8.5085 29.9949 8.51794 30.0217C8.56291 30.1492 8.60017 30.3369 8.62643 30.4773C8.67318 30.7271 8.72322 31.0448 8.75771 31.2638C8.76724 31.3243 8.77558 31.3773 8.78234 31.4192C8.80364 31.5513 8.82452 31.6993 8.84706 31.8592C8.89549 32.2026 8.95162 32.6006 9.03616 33.0125C9.09619 33.305 9.16458 33.5703 9.24228 33.7841C9.29337 33.9247 9.33902 34.016 9.37211 34.0712C9.39247 34.0762 9.41807 34.0823 9.4508 34.0898C9.45558 34.0909 9.46057 34.092 9.46576 34.0932C9.53807 34.1098 9.64854 34.135 9.75611 34.1704C9.87124 34.2082 10.0351 34.2734 10.1892 34.3957C10.3739 34.5423 10.5535 34.7001 10.6974 34.9214C10.8363 35.1348 10.9115 35.3621 10.9776 35.5778C11.0988 35.9737 11.1374 36.3698 11.1649 36.6963C11.1685 36.7389 11.1719 36.7802 11.1752 36.8203C11.1933 37.0403 11.2085 37.2258 11.2359 37.3991C11.2702 37.4244 11.3088 37.451 11.3528 37.4808C11.3581 37.4844 11.3637 37.4882 11.3695 37.4921C11.3893 37.5055 11.4111 37.5203 11.4306 37.5337C11.4553 37.5508 11.4873 37.5732 11.5184 37.5969C11.5253 37.6023 11.5324 37.6077 11.5397 37.6132C11.7095 37.7432 11.9555 37.9312 12.1688 38.1543C12.3884 38.3839 12.6437 38.7209 12.7224 39.1627C12.754 39.3399 12.7814 39.5258 12.8062 39.7133C13.3398 38.7315 13.754 37.6974 13.7727 36.728C13.7815 36.2697 13.8633 35.8311 13.9332 35.4583L13.9351 35.448C14.0078 35.0602 14.0678 34.7403 14.0803 34.4225C14.0975 33.9822 14.3292 33.5517 14.4673 33.298C14.5107 33.2184 14.5499 33.1477 14.585 33.0842C14.6993 32.878 14.7711 32.7484 14.8067 32.6375C14.9012 32.3432 14.9371 32.0025 14.9432 31.6039C14.9462 31.4061 14.942 31.2041 14.9365 30.991C14.9358 30.965 14.9351 30.9388 14.9344 30.9124C14.9296 30.727 14.9244 30.532 14.9244 30.341C14.9244 29.682 14.9407 29.0145 15.0093 28.3326C15.0881 27.5478 15.1219 26.7554 15.1567 25.9399L15.1596 25.8721C15.1951 25.0407 15.2329 24.1852 15.3254 23.336C15.3472 23.1353 15.3687 22.819 15.3851 22.5407C15.3932 22.4042 15.3998 22.2811 15.4043 22.1921L15.4096 22.0872L15.4123 22.0296L15.4143 22.0095C15.419 21.9632 15.428 21.9 15.448 21.8304C15.4658 21.7684 15.5066 21.6497 15.6034 21.5323C15.7151 21.397 15.905 21.264 16.1613 21.251C16.3874 21.2395 16.5534 21.3283 16.6334 21.3809C16.7814 21.4783 16.8685 21.6069 16.898 21.6509C16.9419 21.7162 16.9798 21.7853 17.0111 21.847C17.1325 22.0862 17.2686 22.4432 17.3902 22.8002C17.5151 23.1665 17.6376 23.5712 17.7282 23.9235C17.7733 24.0993 17.8125 24.2697 17.84 24.4201C17.8641 24.5524 17.8909 24.7287 17.8825 24.8886C17.8384 25.7269 17.9119 26.3146 18.0067 27.0718C18.0436 27.3672 18.0838 27.6883 18.1215 28.0601C18.1328 28.1712 18.1206 28.305 18.1148 28.3684L18.1142 28.3747C18.1088 28.4344 18.1017 28.5029 18.0936 28.5759C18.1309 28.5455 18.1678 28.5163 18.2006 28.4903L18.206 28.4861C18.2627 28.4412 18.3114 28.4026 18.3572 28.364C18.4027 28.3257 18.4373 28.2941 18.4633 28.2675C18.4877 28.2426 18.497 28.2296 18.498 28.2283C18.498 28.2282 18.498 28.2282 18.498 28.2283C18.559 28.1349 18.6612 28.025 18.8179 27.9542C18.977 27.8823 19.1329 27.8775 19.2549 27.8985C19.4612 27.934 19.59 28.0452 19.62 28.0711C19.6984 28.1388 19.7465 28.2099 19.7567 28.225L19.7577 28.2264C19.789 28.2724 19.8135 28.3183 19.8252 28.3405C19.854 28.3951 19.8877 28.4652 19.9201 28.5342C19.9544 28.6071 19.998 28.7018 20.0436 28.8008C20.0723 28.8632 20.1018 28.9273 20.1303 28.9888C20.3002 28.8797 20.5849 28.7948 20.8855 28.9443C21.1199 29.0609 21.2157 29.2565 21.2394 29.306C21.2994 29.4313 21.3165 29.554 21.3218 29.5921L21.3221 29.5939C21.3375 29.7039 21.3416 29.8312 21.3432 29.9274C21.3458 30.0928 21.3401 30.354 21.3394 30.3893C21.3393 30.3918 21.3393 30.3932 21.3393 30.3933C21.3393 30.546 21.3372 30.687 21.3352 30.8212C21.3312 31.0917 21.3275 31.3348 21.3423 31.5912C21.3573 31.8517 21.409 32.1204 21.4745 32.447C21.477 32.4598 21.4796 32.4727 21.4823 32.4857C21.5428 32.7869 21.6138 33.1406 21.6402 33.5048C21.6811 34.068 21.7698 34.6334 21.8636 35.2319L21.8678 35.2589C21.9067 35.5071 21.942 35.7481 21.9755 35.9845C22.1098 35.3511 22.2203 34.7104 22.3328 34.058C22.3764 33.8047 22.4204 33.5496 22.4662 33.2926C22.4806 33.2118 22.5169 33.0816 22.6167 32.9533C22.7272 32.8114 22.8825 32.7149 23.0541 32.6769C23.3332 32.6152 23.5471 32.7292 23.5903 32.7522L23.5921 32.7531C23.7165 32.8193 23.8107 32.912 23.8443 32.9451C23.9391 33.0384 24.0471 33.1655 24.1345 33.2709C24.1813 33.3273 24.2286 33.3853 24.2727 33.4393L24.2792 33.4474C24.3216 33.4993 24.3606 33.5471 24.3964 33.5904C24.4679 33.6767 24.4963 33.7068 24.4955 33.7076C24.4952 33.7079 24.4909 33.7041 24.4831 33.6976C24.6557 33.8417 24.7798 34.0118 24.8597 34.1269C24.8856 34.1642 24.9153 34.2084 24.9398 34.2449C24.9451 34.2527 24.95 34.2601 24.9547 34.2671C25.2037 34.173 25.4904 34.086 25.7919 34.0394C26.1872 33.9784 26.6623 33.9787 27.1188 34.1784C28.4043 34.7407 29.6966 34.7396 31.2578 34.7384C31.3331 34.7383 31.409 34.7382 31.4856 34.7382C32.3277 34.7382 33.0621 34.8771 33.8117 35.4988C33.8324 35.516 33.8521 35.5324 33.8711 35.548C34.1559 35.7844 34.2465 35.8596 34.3504 35.9099C34.4222 35.9447 34.5412 35.9852 34.9134 35.9925C34.9202 35.9926 35.0555 35.9744 35.3045 35.6797C35.5259 35.4177 35.7191 35.0746 35.8568 34.7975C35.978 34.5535 36.0483 34.2789 36.1155 33.9331C36.1286 33.8657 36.1419 33.7933 36.1558 33.7171C36.2079 33.4334 36.2694 33.0979 36.365 32.7809C36.3742 32.7502 36.3861 32.7121 36.3999 32.6748L36.4007 32.6725C36.4092 32.6493 36.4423 32.5588 36.5067 32.4678C36.5377 32.4241 36.6313 32.2986 36.8063 32.2164C37.0364 32.1084 37.2955 32.1262 37.5022 32.2441C37.6594 32.3337 37.7407 32.455 37.7669 32.4957C37.8007 32.5483 37.8215 32.5945 37.8309 32.6166C37.8484 32.6572 37.8617 32.6973 37.8658 32.7097L37.8664 32.7118C37.8719 32.7283 37.8745 32.7361 37.8773 32.7442C37.8779 32.7459 37.8785 32.7477 37.8791 32.7495C37.8852 32.7667 37.8877 32.7709 37.8869 32.7695C38.2153 33.3728 38.5091 34.0478 38.7312 34.6966C38.8396 35.013 38.959 35.3071 39.0834 35.604C39.1073 35.6611 39.1317 35.7189 39.1563 35.7772C39.2566 36.0154 39.3607 36.2623 39.4551 36.5101C39.5845 36.8498 39.7016 37.2055 39.7867 37.595C40.0585 37.2332 40.1773 36.875 40.3252 36.3089C40.3223 36.3199 40.3253 36.302 40.3359 36.2377C40.3416 36.2033 40.3495 36.1557 40.3598 36.0921C40.3839 35.9444 40.4153 35.7517 40.4496 35.5613C40.4831 35.3748 40.5223 35.1733 40.5631 35.0125C40.5823 34.9366 40.6089 34.8409 40.6445 34.7533C40.6604 34.7141 40.6939 34.6361 40.7513 34.5554C40.7802 34.5148 40.8349 34.4451 40.9213 34.3799C41.0094 34.3133 41.168 34.2244 41.3836 34.2244C41.6342 34.2244 41.851 34.3291 41.9469 34.3772C42.0722 34.4401 42.1982 34.5182 42.2998 34.5829C42.3445 34.6113 42.3835 34.6365 42.4196 34.6598C42.4774 34.6972 42.5275 34.7295 42.5805 34.762C42.656 34.8083 42.6861 34.8223 42.6859 34.8227C42.6859 34.8228 42.6845 34.8223 42.682 34.8214C42.9917 34.9325 43.2824 35.015 43.6148 35.1092C43.6913 35.1309 43.77 35.1532 43.8517 35.1767C44.2304 35.2854 44.7518 35.2727 45.218 35.1101C45.6854 34.9472 45.9799 34.6794 46.0903 34.3822C46.1588 34.1978 46.2833 33.8655 46.5444 33.6267C46.8839 33.3161 47.307 33.271 47.7014 33.3653C48.1614 33.4751 48.5908 33.6644 48.9626 33.8368C49.0346 33.8701 49.1041 33.9027 49.1716 33.9344C49.4731 34.0756 49.7354 34.1984 50.0041 34.2933C50.1973 34.3616 50.3585 34.4732 50.4829 34.6206C50.5268 34.6727 50.5626 34.7254 50.5917 34.7743C50.6184 34.7621 50.6415 34.7508 50.6591 34.7418C51.028 34.5535 51.4797 34.7 51.668 35.0689C51.8563 35.4379 51.7099 35.8896 51.3409 36.0779C51.2365 36.1311 51.0244 36.2315 50.7897 36.2948C50.6731 36.3262 50.5173 36.3579 50.3482 36.3555C50.1846 36.3533 49.9273 36.3174 49.6979 36.1301C49.5463 36.0063 49.4529 35.8671 49.3924 35.751C49.3729 35.7135 49.3567 35.6782 49.3438 35.6482C49.0532 35.536 48.7682 35.4022 48.5118 35.2819C48.45 35.2528 48.3898 35.2246 48.3317 35.1977C48.0297 35.0577 47.7642 34.9431 47.5106 34.8669C47.5061 34.8787 47.5013 34.8913 47.4964 34.9047C47.1795 35.7574 46.4413 36.2721 45.712 36.5265C44.9816 36.7812 44.1423 36.8207 43.4378 36.6185C43.3667 36.598 43.295 36.5777 43.2226 36.5572C42.887 36.4622 42.5379 36.3633 42.1757 36.2334C42.069 36.1951 41.9647 36.14 41.8802 36.0909C41.8658 36.1768 41.8524 36.2591 41.8403 36.3333C41.8284 36.4062 41.8175 36.4735 41.8086 36.5259L41.8077 36.5311C41.8015 36.5677 41.7898 36.6369 41.7764 36.6881C41.5994 37.3656 41.4041 38.0092 40.8396 38.6798C40.7757 38.7557 40.7078 38.8413 40.63 38.9397L40.6117 38.963C40.5411 39.0525 40.4632 39.1511 40.3833 39.2482C40.2138 39.454 40.0022 39.6943 39.7605 39.8841C39.6807 39.9467 39.5457 40.0283 39.3604 40.0493C39.1602 40.072 38.9803 40.015 38.8447 39.9256C38.6268 39.782 38.5468 39.5736 38.5275 39.5232L38.527 39.5219C38.4715 39.3774 38.4531 39.222 38.4449 39.1441C38.4256 38.9605 38.424 38.7431 38.424 38.7439C38.4031 38.103 38.259 37.5839 38.0533 37.044C37.9692 36.8231 37.8781 36.6069 37.7789 36.3714C37.7531 36.3102 37.7268 36.2477 37.6999 36.1835C37.5742 35.8835 37.4414 35.558 37.3181 35.1999C37.283 35.2881 37.244 35.3766 37.2001 35.4648C37.0442 35.7787 36.7878 36.2484 36.4503 36.6478C36.1403 37.0146 35.6076 37.5064 34.884 37.4922C34.4252 37.4832 34.0534 37.4329 33.6963 37.2598C33.4165 37.1242 33.1727 36.92 32.9465 36.7305C32.9154 36.7045 32.8847 36.6787 32.8542 36.6534C32.4636 36.3295 32.116 36.2382 31.4856 36.2382C31.3854 36.2382 31.2846 36.2384 31.1835 36.2387C29.6906 36.2419 28.1011 36.2453 26.5176 35.5526C26.4127 35.5068 26.252 35.4862 26.0207 35.5219C25.7926 35.5571 25.5478 35.6392 25.3172 35.7379C25.0303 35.8607 24.7115 35.8838 24.4052 35.7549C24.1378 35.6423 23.9648 35.447 23.8669 35.323C23.8038 35.2429 23.7322 35.1376 23.6806 35.0608C23.6035 35.4932 23.5217 35.9283 23.4302 36.3552C23.3928 36.5298 23.1576 37.34 22.9452 38.0542C22.8355 38.423 22.7263 38.7848 22.6424 39.0553C22.6007 39.1897 22.564 39.3055 22.5363 39.3892C22.5228 39.4297 22.5089 39.4705 22.4963 39.5044C22.4909 39.5187 22.4801 39.5472 22.4659 39.5781C22.4608 39.5891 22.4426 39.6289 22.4133 39.6748C22.4013 39.6935 22.3637 39.7515 22.3006 39.8123C22.2688 39.8429 22.2052 39.8991 22.1104 39.9457C22.0129 39.9935 21.8407 40.0504 21.6296 40.0073C21.374 39.9551 21.231 39.7928 21.1871 39.7395C21.1298 39.6701 21.0951 39.6042 21.0776 39.5684C21.041 39.4937 21.0171 39.4202 21.0031 39.3735C20.9727 39.2725 20.9472 39.1568 20.9279 39.061C20.9077 38.9606 20.89 38.8605 20.8769 38.7832C20.8703 38.7442 20.8647 38.7102 20.8605 38.6844L20.8553 38.6527C20.8542 38.6461 20.8537 38.643 20.8535 38.6421C20.8535 38.6416 20.8535 38.6418 20.8535 38.6421C20.7425 38.0186 20.652 37.3639 20.5639 36.7265C20.5053 36.3024 20.4478 35.8859 20.3859 35.4912L20.3777 35.4389C20.2867 34.8588 20.1896 34.2397 20.1442 33.6134C20.1247 33.3449 20.07 33.0723 20.0038 32.742C19.941 32.4291 19.8668 32.0591 19.8448 31.6775C19.8295 31.4127 19.8307 31.1317 19.834 30.8706C19.6656 30.8565 19.5442 30.79 19.4871 30.7542C19.4155 30.7093 19.3647 30.6614 19.3363 30.6325C19.2791 30.5745 19.2371 30.5156 19.213 30.4803C19.1611 30.4042 19.1116 30.3159 19.0701 30.238C19.012 30.1286 18.9484 29.9993 18.8862 29.8687C18.8016 29.9394 18.7221 30.0045 18.6466 30.0663C18.3586 30.3021 18.1301 30.4892 17.9057 30.7488C17.8615 30.7999 17.7147 30.9656 17.463 31.0265C17.3132 31.0627 17.1391 31.0579 16.9699 30.985C16.8105 30.9164 16.7075 30.81 16.647 30.7284C16.5389 30.5824 16.5042 30.4318 16.4917 30.3723C16.4752 30.2939 16.4681 30.2183 16.4646 30.1575C16.4511 29.9285 16.4741 29.6192 16.4996 29.3491C16.5215 29.1178 16.5498 28.873 16.5738 28.6646C16.5793 28.6175 16.5845 28.5723 16.5894 28.5294C16.603 28.4101 16.6137 28.3124 16.6204 28.2393C16.6233 28.2068 16.6247 28.1861 16.6254 28.1748C16.6079 28.0049 16.5888 27.8402 16.5691 27.6785ZM22.7823 34.0051C22.7821 34.0047 22.7848 34.0071 22.7907 34.0127C22.7853 34.0082 22.7824 34.0054 22.7823 34.0051ZM22.4418 38.9487C22.4422 38.9498 22.4419 38.9492 22.441 38.9464C22.4414 38.9475 22.4417 38.9482 22.4418 38.9487ZM16.7794 29.7581C16.7753 29.7625 16.7727 29.7657 16.7715 29.7671C16.7713 29.7674 16.7717 29.7669 16.7715 29.7671C16.7744 29.7638 16.7766 29.7613 16.7794 29.7581Z" fill="black"/>
</svg>
