<svg width="144" height="151" viewBox="0 0 144 151" fill="none" xmlns="http://www.w3.org/2000/svg">
<path fill-rule="evenodd" clip-rule="evenodd" d="M99.7388 2.05213C99.31 2.07491 98.8745 2.09804 98.4919 2.09804C94.8504 2.09804 91.261 3.21907 87.606 4.38201C83.7428 5.61123 81.1847 5.87295 77.0787 5.87432L76.9936 5.87996C76.9166 5.88512 76.8029 5.89286 76.6574 5.90314C76.3662 5.92371 75.9473 5.95445 75.4381 5.99498C74.4192 6.07611 73.0418 6.19625 71.6044 6.3525C70.164 6.50906 68.6773 6.70038 67.4349 6.92254C66.8132 7.03371 66.2663 7.15022 65.8238 7.27027C65.3624 7.39543 65.0832 7.50663 64.9517 7.58366C64.9001 7.61385 64.846 7.63936 64.7899 7.65988C57.8087 10.2132 51.039 15.7232 48.5024 18.1896C47.4843 19.4021 46.3668 20.5168 45.2761 21.5962C45.22 21.6518 45.1639 21.7072 45.1079 21.7626C44.0543 22.8048 43.0308 23.8173 42.0897 24.901C41.5193 25.5578 40.9491 26.22 40.377 26.8844C40.105 27.2003 39.8325 27.5168 39.5594 27.8334C39.682 27.8544 39.8044 27.8758 39.9266 27.8976C41.0291 27.6496 42.2043 27.4246 43.3148 27.3645C44.4794 27.3014 45.6966 27.411 46.7135 27.9759C46.9914 28.1303 47.8901 28.6558 48.6007 29.126C48.9328 29.3458 49.3077 29.6073 49.533 29.8292C49.5905 29.8858 49.6845 29.984 49.7635 30.1127L49.7648 30.1149C49.805 30.1802 50.0657 30.604 49.8377 31.1101C49.5885 31.6633 49.0414 31.716 48.9516 31.7237C48.7861 31.738 48.6358 31.7157 48.5432 31.6988C48.4805 31.6874 48.4179 31.6759 48.3554 31.6644C48.5703 31.8529 48.7033 32.1317 48.6961 32.4398C48.6833 32.992 48.2253 33.4292 47.6732 33.4163C45.3257 33.3617 43.0442 32.9571 40.8511 32.5681C40.7627 32.5524 40.6743 32.5367 40.5861 32.5211C39.0392 32.2471 37.5335 31.9876 36.0289 31.847C35.1769 32.7864 34.3108 33.7135 33.4243 34.6187C32.4875 35.5755 31.7754 36.6346 31.0689 37.78C30.9174 38.0257 30.7649 38.2776 30.6098 38.5337C30.0562 39.4479 29.4702 40.4159 28.7809 41.3449C26.5243 44.3865 24.6695 47.8592 22.8848 51.314C22.8917 51.3655 22.8947 51.4182 22.8935 51.4718C22.8493 53.3731 22.3449 54.9771 21.7765 56.4696C21.6222 56.8748 21.4662 57.2655 21.3125 57.6502C20.8868 58.7159 20.4797 59.7351 20.1809 60.8845C20.1072 61.1677 20.0327 61.4525 19.9579 61.7386C19.616 63.0453 19.2672 64.3786 18.9647 65.7031C19.6825 68.9941 20.4239 72.2826 21.1893 75.557C22.1102 79.4965 22.504 83.8276 22.863 87.7769L22.8663 87.8133L22.8665 87.8155C22.8665 87.8155 22.8665 87.8155 22.8665 87.8155C22.9113 88.3086 22.971 88.8202 23.032 89.344C23.1692 90.5201 23.3135 91.758 23.3135 92.9877C23.3135 93.54 22.8658 93.9877 22.3135 93.9877C21.7612 93.9877 21.3135 93.54 21.3135 92.9877C21.3135 91.8744 21.1914 90.8333 21.061 89.7211C20.9963 89.1696 20.9296 88.6006 20.8747 87.9966L20.8745 87.9944C20.8745 87.9944 20.8745 87.9944 20.8745 87.9944C20.5851 84.8114 20.2823 81.4918 19.7211 78.3535C19.6224 78.4745 19.4939 78.5741 19.3404 78.6399C19.2369 78.6842 19.13 78.7098 19.0236 78.718C19.0396 78.7525 19.0539 78.7882 19.0662 78.8251C19.4769 80.0573 19.585 81.3432 19.5996 82.5653C19.6069 83.1781 19.5906 83.7898 19.5732 84.3772C19.5716 84.4314 19.57 84.4852 19.5684 84.5389C19.5524 85.0741 19.5371 85.5868 19.5371 86.0879C19.5371 87.2875 19.6093 88.5019 19.7204 89.7267C19.9711 90.2557 20.2273 90.7755 20.4804 91.2818C20.9326 92.186 21.2715 93.2585 21.5831 94.2446C21.6842 94.5645 21.7825 94.8753 21.8807 95.1684C22.3106 96.45 22.7601 97.4749 23.44 98.1548C23.6898 98.4046 23.7798 98.7536 23.7101 99.0749C23.9275 99.3324 24.0095 99.6938 23.8952 100.037C23.6353 100.817 23.0527 102.246 22.2609 103.443C22.0444 103.77 21.8004 104.098 21.5296 104.398C21.6982 105.113 21.9098 105.845 22.1835 106.616C23.0175 108.966 24.4428 111.454 25.8919 113.593C26.3332 114.244 26.7484 114.887 27.1596 115.523C27.7914 116.501 28.4137 117.464 29.1059 118.421C30.2212 119.963 31.4204 121.34 32.8746 122.387C33.6849 122.97 34.3506 123.715 34.939 124.384C34.9748 124.425 35.0104 124.465 35.0457 124.505C35.6143 125.153 36.1191 125.728 36.6978 126.199C37.8714 127.154 39.0127 128.154 40.1382 129.147C40.2528 129.249 40.3672 129.35 40.4815 129.451C41.4939 130.344 42.4949 131.228 43.5149 132.082C43.9385 132.436 43.9945 133.067 43.6401 133.49C43.2857 133.914 42.655 133.97 42.2315 133.615C41.19 132.744 40.1686 131.842 39.1593 130.951C39.0444 130.85 38.9296 130.748 38.815 130.647C37.6892 129.654 36.5747 128.677 35.4353 127.75C34.7208 127.168 34.1102 126.472 33.567 125.853C33.5232 125.803 33.4799 125.753 33.4369 125.704C32.8369 125.022 32.3078 124.443 31.706 124.01C30.7451 123.318 29.8976 122.516 29.1303 121.657C29.0898 122.683 29.0331 123.702 28.9768 124.712L28.9762 124.724C28.871 126.611 28.7679 128.465 28.7679 130.331C28.7679 130.883 28.3202 131.331 27.7679 131.331C27.2156 131.331 26.7679 130.883 26.7679 130.331C26.7679 128.405 26.8741 126.5 26.9784 124.627L26.9793 124.612C27.0812 122.783 27.1811 120.984 27.1872 119.175C26.5821 118.313 25.9951 117.406 25.4265 116.527C25.0203 115.9 24.6235 115.286 24.2361 114.714C22.7401 112.506 21.2124 109.86 20.2987 107.285C20.0904 106.698 19.9147 106.129 19.7649 105.572C19.4034 105.666 19.0093 105.684 18.5928 105.58C18.3747 105.525 18.1536 105.472 17.9307 105.419C15.8897 104.931 13.6916 104.406 12.1287 102.185C11.3163 101.031 10.6344 99.6418 10.0285 98.4076C9.90363 98.1534 9.78202 97.9057 9.66315 97.6679C8.92852 96.1987 8.04482 94.8962 7.08703 93.5857C6.79893 93.1915 6.50064 92.7922 6.19747 92.3863C5.50839 91.4638 4.79411 90.5075 4.11688 89.5013C2.41354 86.9706 0.790729 83.1694 0.21771 79.3703C-0.350962 75.6001 0.0825758 71.5637 2.86447 68.8888C4.34154 67.4685 6.13723 67.0952 7.92929 67.3719C9.68011 67.6422 11.4412 68.5286 13.0225 69.6372C14.0621 70.3661 15.0519 71.2105 15.9437 72.087C16.0459 71.1329 16.161 70.1726 16.2865 69.1997C16.4348 68.0505 16.6574 66.8717 16.9165 65.697C16.6455 64.4511 16.378 63.205 16.1137 61.9593C15.9292 61.0893 15.6221 60.2477 15.2885 59.3337C15.2029 59.0992 15.1156 58.86 15.0282 58.6143C14.6162 57.4566 14.2137 56.1801 14.1808 54.8296C14.1673 54.2775 14.604 53.819 15.1561 53.8056C15.7082 53.7921 16.1667 54.2288 16.1802 54.7809C16.2048 55.789 16.508 56.8072 16.9124 57.9438C16.9867 58.1524 17.065 58.3666 17.1451 58.5855C17.4545 59.4315 17.7896 60.3477 18.0106 61.2792C18.0141 61.2657 18.0177 61.2522 18.0212 61.2387C18.097 60.9494 18.1719 60.6634 18.2452 60.3812C18.5786 59.0991 19.0528 57.9125 19.4912 56.8156C19.636 56.4533 19.7769 56.1008 19.9075 55.7578C20.3071 54.7085 20.6362 53.6936 20.7947 52.6022C20.4731 52.3048 20.3749 51.8189 20.5851 51.4105C22.5193 47.6525 24.5837 43.6454 27.1747 40.1532C27.8024 39.3072 28.3243 38.4458 28.8698 37.5452C29.0322 37.2772 29.1966 37.0057 29.3666 36.7301C30.0936 35.5514 30.8991 34.339 31.9953 33.2195C32.4713 32.7334 32.9411 32.2411 33.4061 31.7438C32.5422 31.7662 31.657 31.8523 30.737 31.9432L30.6835 31.9485C29.6485 32.0508 28.5649 32.1578 27.5096 32.1578C27.3259 32.1578 27.1615 32.1535 27.0267 32.1416C26.9613 32.1359 26.8779 32.1263 26.7918 32.1074C26.7906 32.1071 26.789 32.1068 26.7871 32.1064C26.7417 32.0968 26.5084 32.0475 26.2998 31.8675C26.1621 31.7486 25.9557 31.5001 25.9467 31.1223C25.9382 30.7672 26.1116 30.5263 26.2038 30.4222C26.3615 30.2441 26.5484 30.1619 26.5915 30.143C26.593 30.1423 26.5944 30.1417 26.5955 30.1412C26.728 30.0825 26.8788 30.0413 26.9905 30.0133C27.4701 29.8927 28.373 29.7416 29.3906 29.5901C30.388 29.4417 31.5476 29.2856 32.6381 29.1489C32.2704 29.0012 32.0108 28.6413 32.0108 28.2207C32.0108 27.6684 32.4586 27.2207 33.0108 27.2207C34.4582 27.2207 35.8532 27.3214 37.2148 27.4867C37.7573 26.8614 38.2985 26.233 38.8408 25.6032C39.4181 24.9328 39.9967 24.2609 40.5797 23.5896C41.5721 22.4467 42.6457 21.3849 43.6864 20.3555C43.7475 20.2951 43.8085 20.2348 43.8693 20.1746C44.9769 19.0785 46.0429 18.0129 47.0013 16.867C47.0229 16.8412 47.0457 16.8165 47.0698 16.793C49.6711 14.2534 56.669 8.52211 64.0275 5.80926C64.3843 5.61687 64.8373 5.46558 65.3002 5.34002C65.8202 5.19898 66.4295 5.0706 67.0828 4.95377C68.3904 4.71994 69.9287 4.52285 71.3883 4.36421C72.8508 4.20524 74.2484 4.08338 75.2794 4.00129C75.7953 3.96022 76.2201 3.92905 76.5164 3.90812C76.6646 3.89765 76.7807 3.88974 76.8599 3.88443L76.9506 3.87842L76.982 3.87639C76.9821 3.87638 76.9827 3.87635 77.0463 4.87433L76.982 3.87639C77.0032 3.87504 77.0251 3.87433 77.0463 3.87433C81.0268 3.87433 83.3732 3.63001 86.9996 2.47615C90.6047 1.32908 94.4889 0.0980375 98.4919 0.0980375C98.8166 0.0980375 99.189 0.0783519 99.6208 0.0555303C99.7001 0.0513389 99.7814 0.0470418 99.8648 0.0427414C100.386 0.0158648 100.968 -0.00967166 101.55 0.00363603C102.663 0.0290975 104.016 0.195323 104.999 1.00008C106.097 1.89807 106.986 2.89593 107.811 3.86803C107.973 4.05923 108.132 4.24851 108.29 4.4359C108.947 5.21754 109.576 5.96633 110.295 6.68474C110.685 7.07527 110.685 7.70843 110.295 8.09896C109.904 8.48948 109.271 8.48948 108.881 8.09896C108.095 7.31325 107.397 6.4829 106.736 5.69619C106.585 5.51554 106.435 5.3372 106.286 5.16223C105.477 4.20859 104.684 3.32593 103.733 2.548C103.306 2.19899 102.557 2.02721 101.504 2.00311C101.002 1.99164 100.484 2.01344 99.9678 2.04009C99.8919 2.044 99.8155 2.04806 99.7388 2.05213ZM38.8747 30.2007C39.5692 30.3109 40.2561 30.4315 40.9349 30.5517C41.0061 30.5643 41.0771 30.5769 41.1481 30.5895C43.1034 30.9361 44.9928 31.271 46.9038 31.3832C45.9428 31.189 45.0001 30.9849 44.0719 30.7837L44.0421 30.7772C42.6658 30.479 41.3227 30.1879 39.9733 29.9387C39.6825 30.0064 39.3872 30.0775 39.0915 30.1486C39.0192 30.1659 38.9469 30.1833 38.8747 30.2007ZM48.1286 31.2532C48.1316 31.2564 48.1332 31.2579 48.133 31.2576C48.1328 31.2574 48.1317 31.2563 48.1296 31.2542C48.1293 31.2538 48.129 31.2535 48.1286 31.2532ZM18.0831 70.9651C17.9593 72.0108 17.85 73.0425 17.7579 74.0693C18.3602 74.8047 18.883 75.536 19.2887 76.2152C19.2732 76.1474 19.2576 76.0798 19.2418 76.0123C18.8492 74.3329 18.463 72.65 18.0831 70.9651ZM15.6944 74.7295C14.6106 73.5004 13.282 72.2617 11.8744 71.2749C10.4238 70.2579 8.9537 69.5537 7.62413 69.3484C6.3358 69.1495 5.20197 69.4157 4.25069 70.3304C2.16219 72.3386 1.6647 75.5539 2.19534 79.0721C2.72163 82.5614 4.22847 86.0853 5.77606 88.3846C6.42532 89.3492 7.0904 90.2394 7.76502 91.1424C8.07544 91.5579 8.38788 91.9762 8.70173 92.4056C9.6828 93.7479 10.6431 95.1556 11.452 96.7735C11.5854 97.0403 11.7171 97.3081 11.8484 97.5751C12.4543 98.8071 13.0514 100.021 13.7643 101.034C14.8729 102.61 16.3237 102.964 18.4465 103.484C18.6507 103.534 18.861 103.585 19.0779 103.639C19.1316 103.653 19.2103 103.659 19.3264 103.617C19.0582 102.147 18.9242 100.721 18.7836 99.2264C18.7244 98.5967 18.664 97.9546 18.5919 97.2917C18.489 96.3443 18.3657 95.3683 18.2403 94.3756C18.0699 93.0267 17.8956 91.6472 17.7632 90.2673C16.5985 87.7725 15.4805 84.8618 15.4392 82.0934C15.4015 79.5676 15.4993 77.149 15.6944 74.7295ZM17.5918 83.6569C17.5998 83.2971 17.604 82.9417 17.5997 82.5892C17.5911 81.863 17.5464 81.1731 17.433 80.5226C17.4294 81.0326 17.4313 81.5459 17.439 82.0635C17.4468 82.5852 17.5006 83.1177 17.5918 83.6569ZM17.4809 78.3698C17.4957 77.9719 17.5136 77.5751 17.5345 77.1789C17.7432 77.523 17.9089 77.8383 18.0273 78.1146C18.0316 78.1246 18.036 78.1344 18.0405 78.1441C17.9608 78.1503 17.8806 78.1662 17.8013 78.1927C17.6809 78.2328 17.5732 78.2936 17.4809 78.3698ZM20.6205 97.4539C20.6812 98.0351 20.7337 98.5893 20.7844 99.1242C20.8659 99.9851 20.9428 100.796 21.0413 101.589C21.4583 100.821 21.7827 100.027 21.9634 99.5056C21.3882 98.911 20.961 98.1961 20.6205 97.4539ZM96.2787 12.3265C96.1416 12.4134 96.008 12.5043 95.8781 12.5997C95.9405 12.5893 96.0027 12.5792 96.0648 12.5693C96.1328 12.4853 96.2045 12.4044 96.2787 12.3265ZM100.078 12.1617C100.143 12.1271 100.208 12.0928 100.272 12.0588C100.316 12.0359 100.359 12.0129 100.402 11.99C100.738 11.813 101.069 11.6382 101.333 11.4826C101.394 11.4466 101.464 11.4059 101.539 11.3617C102.014 11.0838 102.731 10.6649 103.131 10.3488C103.237 10.2653 103.42 10.1152 103.551 9.92102C103.608 9.83672 103.763 9.59133 103.748 9.24796C103.729 8.78553 103.433 8.48281 103.162 8.34705C102.948 8.23999 102.742 8.22533 102.644 8.22179C102.524 8.2175 102.406 8.2268 102.301 8.23966C102.09 8.26554 101.834 8.31853 101.538 8.39254C101.359 8.43733 101.175 8.4824 100.989 8.52829C98.8064 9.06508 96.168 9.71403 94.2346 11.3499C93.3805 12.0726 92.6019 12.9124 91.8862 13.7784C90.8748 14.2852 89.9451 15.0157 89.4678 16.0895C89.2697 16.5353 89.1999 17.0584 89.1572 17.4183C88.3314 18.5539 87.4777 19.6766 86.6202 20.8043C84.427 23.6886 82.2094 26.605 80.3736 29.8496C80.3233 29.9386 80.2881 30.0319 80.2672 30.1268C79.881 30.681 79.5054 31.2414 79.1429 31.8077C79.1329 31.8234 79.1214 31.8416 79.1098 31.8607C79.1032 31.8715 79.0966 31.8827 79.0901 31.8939C79.0819 31.9082 79.0664 31.9354 79.05 31.9691C79.042 31.9855 79.0278 32.0156 79.0132 32.054L79.0128 32.055C79.0035 32.0791 78.9668 32.1751 78.9525 32.3035C78.9456 32.3653 78.9337 32.516 78.9873 32.6976C79.0497 32.9092 79.2142 33.1875 79.5492 33.3327C79.839 33.4582 80.0939 33.4104 80.2008 33.3824C80.319 33.3514 80.4048 33.3056 80.4451 33.2825C80.528 33.235 80.5853 33.186 80.6036 33.1703C80.6294 33.148 80.6494 33.1285 80.6612 33.1168C80.7011 33.0769 80.7341 33.0374 80.7465 33.0226C80.8088 32.9479 80.9094 32.8167 81.0222 32.6671C81.2585 32.3537 81.6156 31.8697 82.0004 31.3426C82.7634 30.2976 83.6694 29.0366 83.9673 28.5843C84.0789 28.4148 84.1876 28.2432 84.2938 28.0709C85.0243 27.1467 85.774 26.2387 86.5292 25.3474C87.3395 24.3909 88.04 23.3575 88.6947 22.3425C88.8979 22.0274 89.095 21.7168 89.2895 21.4104C89.7328 20.712 90.1627 20.0347 90.6211 19.3726C90.8941 18.9783 91.0089 18.5397 91.0705 18.1857C91.1227 18.1133 91.175 18.0407 91.2274 17.968C91.846 17.1095 92.4765 16.2346 93.1474 15.3972C94.0699 15.0012 95.2057 14.7311 96.382 14.544C96.4816 14.5688 96.5648 14.5752 96.5946 14.5775L96.5957 14.5776C96.6992 14.5856 96.8161 14.5844 96.9156 14.5816C97.1286 14.5757 97.4166 14.5572 97.7326 14.5325C98.3704 14.4825 99.1818 14.4022 99.8724 14.3247C100.518 14.2523 101.17 14.1707 101.408 14.1108C101.432 14.1048 101.467 14.0953 101.507 14.0818L101.508 14.0814C101.534 14.0728 101.628 14.041 101.733 13.9757C101.779 13.9466 101.91 13.8614 102.022 13.7017C102.157 13.5102 102.292 13.1575 102.137 12.7596C102.013 12.4411 101.773 12.2942 101.695 12.2504C101.596 12.1942 101.509 12.1676 101.469 12.1563C101.34 12.12 101.219 12.1157 101.193 12.1148L101.19 12.1147C101.14 12.1126 101.087 12.1125 101.038 12.1132C100.849 12.1156 100.534 12.1315 100.078 12.1617ZM111.177 8.62887C111.652 8.34791 112.266 8.50559 112.547 8.98107C112.963 9.6866 113.399 10.3924 113.838 11.1046C115.327 13.5172 116.861 16.0031 117.871 18.8007C118.281 19.9362 118.881 21.0405 119.526 22.2284C119.701 22.5518 119.88 22.8815 120.06 23.2196C120.871 24.7477 121.671 26.4215 121.93 28.2298C121.956 28.4122 122.126 28.789 122.469 29.2599C122.595 29.4333 122.729 29.5977 122.86 29.7453C122.86 29.6145 122.856 29.4747 122.849 29.3275C122.787 28.0243 122.486 26.469 122.439 26.2781C122.054 24.7036 121.35 23.3315 120.588 21.8453C120.497 21.6682 120.405 21.4895 120.313 21.3086C119.701 20.2845 119.126 19.1914 118.711 17.97C118.627 17.7223 118.564 17.4988 118.525 17.3142C118.505 17.2235 118.488 17.127 118.479 17.0334C118.474 16.987 118.47 16.9265 118.471 16.8593C118.472 16.8093 118.476 16.677 118.528 16.5243C118.561 16.4248 118.768 15.8876 119.402 15.8335C119.67 15.8107 119.877 15.8986 119.99 15.9628C120.104 16.0276 120.182 16.101 120.224 16.1452C120.363 16.2883 120.441 16.4533 120.466 16.5077L120.467 16.5104C120.545 16.6751 120.625 16.9004 120.707 17.1697C121.04 18.258 121.524 19.2769 122.064 20.3401C122.373 20.8539 122.698 21.3609 123.034 21.8844L123.106 21.9964C123.47 22.5651 123.845 23.1529 124.203 23.7619C125.683 26.2803 126.613 28.9339 127.512 31.4973C127.857 32.4817 128.198 33.4529 128.563 34.3979C128.683 34.7085 128.801 35.0592 128.916 35.4014L128.923 35.4244C129.044 35.7822 129.164 36.1394 129.296 36.4872C129.568 37.2077 129.845 37.7653 130.145 38.0987C131.087 39.1456 131.66 40.4662 132.109 41.7035C132.277 42.1682 132.426 42.6102 132.568 43.0336C132.827 43.8054 133.065 44.5152 133.367 45.1873C134.028 46.6552 134.54 48.266 135.034 49.8204C135.179 50.2773 135.323 50.7292 135.468 51.1712C136.123 53.1629 136.828 55.0059 137.893 56.5438C139.8 59.2987 140.602 63.3933 141.11 66.3863C141.562 69.0473 141.922 71.7935 142.159 74.5476C142.322 74.4326 142.521 74.365 142.735 74.365C143.287 74.365 143.735 74.8128 143.735 75.365C143.735 80.3999 143.63 85.4793 143.525 90.5326L143.524 90.5701C143.42 95.6144 143.316 100.632 143.316 105.575C143.316 107.109 143.482 108.576 143.654 110.09C143.706 110.553 143.759 111.021 143.808 111.496C144.013 113.49 144.137 115.565 143.742 117.736C143.48 119.176 142.563 120.445 141.591 121.481C140.668 122.464 139.592 123.344 138.734 124.045C138.677 124.091 138.621 124.137 138.566 124.182C138.534 124.208 138.502 124.234 138.47 124.261C136.877 126.548 135.107 128.676 133.198 130.791C132.851 131.175 132.516 131.577 132.225 131.933C131.946 132.274 131.681 132.606 131.514 132.797C131.474 132.844 131.43 132.893 131.386 132.939C132.181 132.844 132.898 132.916 133.549 133.248C134.434 133.699 134.989 134.534 135.476 135.411C136.544 137.333 135.77 139.297 134.794 140.762C133.896 142.109 132.644 143.316 131.797 144.133C131.709 144.219 131.625 144.3 131.546 144.376C130.816 145.085 129.979 145.693 129.166 146.245C128.852 146.458 128.548 146.658 128.253 146.853C127.756 147.18 127.282 147.493 126.818 147.827C126.364 148.154 125.985 148.488 125.573 148.851C125.379 149.021 125.178 149.198 124.959 149.384C124.307 149.935 123.563 150.494 122.596 150.881C122.083 151.086 121.501 150.837 121.296 150.324C121.091 149.811 121.34 149.229 121.853 149.024C122.526 148.755 123.078 148.355 123.667 147.857C123.825 147.723 123.993 147.576 124.169 147.421C124.613 147.03 125.113 146.59 125.649 146.204C126.141 145.85 126.682 145.493 127.206 145.147C127.494 144.957 127.776 144.771 128.044 144.589C128.83 144.056 129.55 143.526 130.152 142.942C130.233 142.863 130.316 142.783 130.402 142.7C131.266 141.865 132.36 140.808 133.129 139.653C133.99 138.363 134.229 137.285 133.728 136.382C133.253 135.528 132.944 135.184 132.64 135.03C132.368 134.891 131.903 134.811 130.858 135.072C129.808 135.334 128.788 135.699 127.729 136.092C127.606 136.137 127.483 136.183 127.359 136.229C126.428 136.576 125.459 136.936 124.464 137.229C124.418 137.242 124.304 137.274 124.161 137.276C124.078 137.277 123.581 137.277 123.283 136.801C123.003 136.354 123.184 135.927 123.211 135.864C123.263 135.741 123.328 135.652 123.356 135.616C123.462 135.477 123.617 135.341 123.714 135.257C123.953 135.049 124.313 134.767 124.685 134.482C125.228 134.066 125.852 133.603 126.268 133.295C126.426 133.178 126.554 133.083 126.636 133.022C126.646 133.014 126.656 133.006 126.667 132.999C126.711 132.838 126.797 132.687 126.923 132.561C127.833 131.651 128.715 130.603 129.597 129.484C129.85 128.921 130.022 128.345 130.114 127.765C130.413 125.884 129.892 123.827 128.335 121.825C128.041 121.448 127.545 121.191 126.773 121.101C125.997 121.011 125.049 121.105 124.031 121.334C121.994 121.793 119.929 122.731 118.923 123.346C118.36 123.69 117.809 124.02 117.267 124.346C115.972 125.122 114.724 125.87 113.468 126.711C112.996 127.191 112.528 127.676 112.066 128.167C111.813 128.436 111.61 128.642 111.453 128.792C111.332 128.907 111.149 129.077 110.965 129.176C110.923 129.199 110.769 129.282 110.558 129.302C110.44 129.314 110.236 129.313 110.014 129.204C109.768 129.084 109.604 128.881 109.52 128.669C109.392 128.347 109.472 128.065 109.486 128.014L109.488 128.01C109.514 127.916 109.548 127.842 109.568 127.802C109.641 127.654 109.753 127.497 109.841 127.379C110.216 126.879 111.035 125.957 111.771 125.447C111.909 125.352 112.047 125.257 112.185 125.164C113.785 123.544 115.443 121.967 117.091 120.401C118.081 119.46 119.067 118.522 120.035 117.58C120.829 116.808 121.717 116.029 122.592 115.261C123.041 114.868 123.486 114.477 123.913 114.092C125.206 112.926 126.391 111.765 127.29 110.529C128.16 109.333 128.525 108.631 128.693 107.956C128.867 107.261 128.856 106.509 128.778 105.112C128.731 104.264 128.442 103.88 128.155 103.682C127.824 103.455 127.292 103.334 126.547 103.409C125.044 103.559 123.219 104.451 122.123 105.457C122.019 105.553 121.896 105.625 121.763 105.669C119.809 106.321 118.338 107.535 116.849 109.007C116.495 109.356 116.136 109.726 115.767 110.105C114.623 111.282 113.386 112.555 111.931 113.625C110.481 114.691 109.015 115.733 107.55 116.776C105.137 118.492 102.726 120.207 100.39 122.024C98.5668 123.442 96.1673 124.238 93.746 124.592C91.3151 124.949 88.7799 124.873 86.6134 124.479C85.3405 124.248 84.2115 123.734 83.1915 123.225C82.9674 123.113 82.7503 123.003 82.538 122.895C81.7497 122.493 81.0269 122.125 80.2554 121.85C78.2787 121.144 75.4006 120.046 73.5674 118.62C71.0661 116.675 68.2143 115.03 65.3525 113.73C62.4905 112.429 58.4539 111.669 55.591 112.54C54.6725 112.82 54.1822 113.351 54.0177 113.853C53.8607 114.332 53.9315 114.993 54.5787 115.721L54.69 115.847C55.6811 116.962 56.4617 117.841 57.5922 118.72C57.7944 118.877 58.0574 119.108 58.3184 119.337L58.3499 119.365C58.6133 119.596 58.8935 119.843 59.1733 120.075C59.4669 120.319 59.7386 120.529 59.9674 120.679C60.1762 120.816 60.2675 120.846 60.2666 120.85C60.2664 120.85 60.2647 120.85 60.2613 120.85C60.688 120.905 61.1684 121.143 61.5391 121.346C61.965 121.579 62.4396 121.878 62.8971 122.183C63.8139 122.795 64.7214 123.472 65.1448 123.802C65.6092 124.163 66.0406 124.465 66.4827 124.774C66.7126 124.935 66.9454 125.098 67.1872 125.273C67.8718 125.766 68.5645 126.309 69.2439 127.028C71.1657 129.063 72.4469 131.426 73.471 133.857C74.1152 135.387 74.6801 137.006 75.2333 138.591C75.5444 139.483 75.8518 140.364 76.1675 141.212C76.3601 141.73 76.0966 142.306 75.579 142.498C75.0614 142.691 74.4857 142.427 74.2931 141.91C73.9455 140.976 73.6257 140.058 73.3102 139.152C72.775 137.616 72.2522 136.116 71.6277 134.633C70.6527 132.318 69.4842 130.195 67.7899 128.401C67.2347 127.813 66.6563 127.356 66.0175 126.895C65.8203 126.753 65.6099 126.605 65.3907 126.452C64.9246 126.125 64.4189 125.771 63.9169 125.38C63.5222 125.073 62.6545 124.426 61.7867 123.847C61.3519 123.556 60.932 123.293 60.5794 123.1C60.2117 122.899 60.0357 122.842 60.0112 122.835C60.0089 122.834 60.008 122.834 60.0083 122.834C59.5696 122.782 59.1515 122.535 58.8713 122.352C58.5491 122.141 58.2101 121.875 57.8959 121.614C57.5938 121.363 57.2945 121.1 57.0357 120.873L56.9985 120.84C56.7199 120.595 56.5085 120.411 56.3643 120.299C55.0856 119.304 54.1951 118.301 53.2266 117.211C53.1792 117.157 53.1317 117.104 53.0839 117.05C52.0531 115.89 51.6996 114.504 52.1172 113.23C52.5272 111.979 53.6101 111.053 55.0087 110.627C58.5209 109.558 63.0884 110.504 66.1801 111.909C69.1578 113.262 72.1494 114.984 74.7953 117.042C76.3355 118.24 78.9066 119.244 80.928 119.966C81.8328 120.289 82.7024 120.733 83.5037 121.142C83.7016 121.243 83.8954 121.341 84.0845 121.436C85.0749 121.93 85.9923 122.334 86.9712 122.512C88.93 122.868 91.2464 122.937 93.456 122.614C95.6753 122.288 97.705 121.578 99.1622 120.445C101.522 118.61 104.007 116.842 106.451 115.102C107.909 114.065 109.352 113.039 110.746 112.014C112.055 111.051 113.128 109.948 114.244 108.801C114.634 108.399 115.03 107.993 115.443 107.584C116.954 106.091 118.637 104.653 120.931 103.841C122.314 102.639 124.44 101.609 126.349 101.419C127.347 101.319 128.419 101.437 129.287 102.034C130.198 102.66 130.702 103.684 130.775 105.001C130.85 106.354 130.892 107.406 130.634 108.44C130.371 109.495 129.821 110.449 128.907 111.706C127.881 113.117 126.568 114.392 125.252 115.577C124.78 116.004 124.312 116.413 123.854 116.815C123.006 117.559 122.19 118.275 121.43 119.014C120.836 119.591 120.244 120.159 119.654 120.723C120.797 120.208 122.195 119.698 123.592 119.383C124.725 119.128 125.918 118.988 127.004 119.114C128.093 119.241 129.178 119.652 129.913 120.597C131.28 122.354 132.035 124.238 132.172 126.117C133.044 124.976 133.936 123.843 134.856 122.812C135.457 122.139 136.123 121.47 136.765 120.825C137.14 120.449 137.506 120.081 137.846 119.726C138.806 118.723 139.659 117.721 140.302 116.577L140.303 116.576C140.32 116.544 140.374 116.449 140.453 116.357C140.478 116.329 140.519 116.284 140.578 116.236C140.627 116.195 140.743 116.107 140.915 116.052C141.111 115.989 141.418 115.963 141.723 116.14C141.804 116.186 141.87 116.239 141.926 116.294C142.076 114.78 141.981 113.274 141.819 111.701C141.774 111.27 141.725 110.832 141.674 110.386C141.5 108.852 141.316 107.233 141.316 105.575C141.316 100.611 141.42 95.5754 141.525 90.5378L141.526 90.4911C141.58 87.872 141.634 85.2525 141.674 82.6394C141.61 82.6522 141.544 82.6589 141.476 82.6589C140.924 82.6589 140.476 82.2112 140.476 81.6589C140.476 76.7381 139.966 71.5936 139.138 66.7211C138.619 63.6616 137.863 60.0149 136.249 57.6822C135.009 55.8914 134.232 53.8123 133.568 51.7963C133.408 51.3084 133.255 50.8265 133.103 50.3517C132.616 48.8197 132.152 47.3606 131.543 46.008C131.202 45.2505 130.907 44.3713 130.626 43.5368C130.491 43.1366 130.36 42.7468 130.229 42.3855C129.797 41.1965 129.33 40.1829 128.658 39.4367C128.092 38.8069 127.709 37.945 127.425 37.1943C127.278 36.8065 127.147 36.415 127.028 36.0619C126.906 35.7003 126.801 35.3865 126.697 35.1187C126.284 34.0484 125.918 33.0044 125.559 31.9807C125.326 31.3148 125.095 30.6575 124.857 30.0071C124.854 30.1135 124.848 30.2182 124.841 30.3203C124.815 30.6501 124.759 31.0226 124.622 31.3507C124.49 31.6677 124.182 32.1614 123.548 32.277C122.973 32.382 122.491 32.0982 122.191 31.8646C121.756 31.5265 121.258 30.9944 120.853 30.4379C120.467 29.9083 120.048 29.2008 119.95 28.5127C119.745 27.0758 119.094 25.6669 118.293 24.1571C118.137 23.8621 117.973 23.5614 117.807 23.2558C117.152 22.0514 116.457 20.7726 115.99 19.48C115.057 16.8959 113.671 14.6477 112.205 12.2705C111.749 11.5303 111.285 10.7777 110.825 9.99853C110.544 9.52305 110.701 8.90983 111.177 8.62887ZM129.18 133.469C129.491 133.372 129.807 133.279 130.127 133.195C129.952 133.107 129.833 132.988 129.752 132.865C129.57 133.071 129.379 133.272 129.18 133.469ZM118.658 17.3631C118.659 17.3644 118.66 17.3659 118.66 17.3674C118.65 17.349 118.65 17.3449 118.658 17.3631ZM123.495 30.3374C123.495 30.3379 123.491 30.3359 123.482 30.3304C123.49 30.3343 123.495 30.337 123.495 30.3374ZM103.559 25.5235C103.245 25.4548 102.839 25.4719 101.812 25.9283C101.05 26.2667 100.288 27.0216 99.3415 28.0126C99.2914 28.0651 99.2408 28.1183 99.1896 28.172C98.3491 29.0545 97.3667 30.0859 96.2548 30.7114C95.3854 31.2004 94.2024 32.0171 93.0927 32.9375C91.9689 33.8696 91.0031 34.8404 90.4984 35.6254C90.2068 36.079 89.9281 36.5944 89.6236 37.1573C89.501 37.3838 89.3744 37.618 89.241 37.859C88.8011 38.6539 88.2916 39.5148 87.688 40.1686C87.4764 40.3978 87.2915 40.7726 87.1614 41.3281C87.057 41.7742 86.999 42.288 86.9736 42.8448C89.1528 39.8668 91.9546 37.1187 95.294 35.449C96.3979 34.897 98.0394 34.2347 99.4128 34.0901C99.4123 34.0902 99.4499 34.0851 99.5408 34.0652C99.6235 34.0471 99.7281 34.0217 99.8501 33.9897C100.094 33.9258 100.388 33.8407 100.68 33.7483C100.974 33.6555 101.255 33.559 101.475 33.4733C101.585 33.4302 101.67 33.3938 101.729 33.3656C101.748 33.3569 101.761 33.3503 101.769 33.3459C102.378 32.8708 103.3 32.4943 104.265 32.2052C105.279 31.9016 106.458 31.6607 107.637 31.5129C108.729 31.3761 109.847 31.3159 110.857 31.3676C110.306 30.8864 109.782 30.3992 109.3 29.9175C109.048 29.6651 108.805 29.4133 108.56 29.1598C108.199 28.7852 107.834 28.4068 107.43 28.0173C106.773 27.3856 106.138 26.8526 105.535 26.5181C105.318 26.3975 105.131 26.291 104.962 26.1951C104.71 26.0516 104.499 25.9316 104.291 25.823C103.963 25.6513 103.745 25.5644 103.559 25.5235ZM112.079 33.5376C111.777 33.4653 111.402 33.4084 110.951 33.3769C110.045 33.3135 108.972 33.3613 107.886 33.4974C106.801 33.6333 105.733 33.8535 104.839 34.1211C103.914 34.3983 103.283 34.6952 102.986 34.9331C102.85 35.0419 102.694 35.1211 102.592 35.17C102.472 35.2273 102.338 35.2836 102.201 35.3368C101.926 35.4438 101.601 35.5548 101.282 35.6555C100.962 35.7565 100.637 35.851 100.358 35.9242C100.103 35.9911 99.8204 36.0583 99.6222 36.0791C98.6098 36.1857 97.2261 36.719 96.1884 37.2378C92.4272 39.1184 89.3142 42.6095 87.0966 46.2616C87.5826 47.6041 88.6635 49.3448 89.991 50.9821C91.3733 52.687 92.9188 54.1513 94.1503 54.8757C94.4323 55.0416 94.712 55.2188 94.9895 55.4045C95.2059 55.1583 95.5388 55.0233 95.8873 55.0747C96.446 55.1572 97 55.2411 97.5496 55.3245C103.316 56.1985 108.605 57.0003 113.98 55.2086C114.31 55.0988 114.775 54.9792 115.249 54.8573L115.28 54.8494C115.776 54.722 116.314 54.5837 116.838 54.4288C117.369 54.2718 117.856 54.1061 118.244 53.9318C118.665 53.7425 118.838 53.6001 118.877 53.5512C119.089 53.2859 119.389 53.0871 119.623 52.9514C119.881 52.8016 120.174 52.6648 120.461 52.5497C120.749 52.434 121.049 52.3328 121.328 52.2589C121.589 52.1898 121.897 52.1269 122.175 52.1269C122.728 52.1269 123.175 52.5746 123.175 53.1269C123.175 53.6792 122.728 54.1269 122.175 54.1269C122.173 54.127 122.142 54.1282 122.079 54.139C122.015 54.1497 121.935 54.1672 121.84 54.1924C121.649 54.2429 121.427 54.317 121.206 54.4057C120.984 54.4948 120.781 54.5914 120.626 54.6816C120.482 54.7648 120.432 54.8123 120.431 54.8111C120.43 54.811 120.431 54.8101 120.432 54.8084C120.079 55.2451 119.535 55.5442 119.064 55.7562C118.556 55.9843 117.97 56.1796 117.405 56.3467C116.847 56.5119 116.279 56.6578 115.791 56.7831L115.766 56.7895C115.255 56.9209 114.864 57.0223 114.613 57.106C108.857 59.0244 103.186 58.2076 97.5935 57.3553C97.694 57.4353 97.7943 57.5152 97.8943 57.5949C98.632 58.1829 99.3583 58.7618 100.11 59.3052C102.101 60.745 104.067 61.7774 106.254 61.7774C107.74 61.7774 109.282 61.882 110.799 61.985L110.865 61.9895C112.417 62.0948 113.945 62.197 115.439 62.197C116.795 62.197 117.808 61.8672 118.838 61.3978C119.154 61.2538 119.497 61.0825 119.863 60.8996C120.629 60.5164 121.498 60.082 122.44 59.7397C124.612 58.9495 125.47 56.8837 125.492 54.2014C125.514 51.5359 124.68 48.6152 123.874 46.8239C123.363 45.6887 122.812 44.4682 122.2 43.2432C121.762 43.9274 121.22 44.4724 120.593 44.8889C119.558 45.5759 118.365 45.865 117.178 45.9353C114.839 46.0737 112.272 45.3709 110.388 44.8328C107.721 44.0707 106.196 41.1112 107.317 38.4481C108.114 36.5552 108.963 35.1687 110.282 34.3075C110.826 33.9527 111.422 33.7055 112.079 33.5376ZM121.036 41.0586C120.865 40.7592 120.688 40.4625 120.508 40.1698C119.179 38.019 117.649 36.1697 115.844 35.0455C115.683 35.156 115.489 35.2207 115.279 35.2207C113.306 35.2207 112.183 35.4554 111.375 35.9825C110.572 36.5068 109.917 37.428 109.161 39.2242C108.839 39.9872 108.897 40.7998 109.23 41.4764C109.283 41.389 109.346 41.2936 109.416 41.1905C110.292 39.9041 111.281 38.718 112.289 37.5631C112.653 37.147 113.284 37.1042 113.7 37.4674C114.116 37.8306 114.159 38.4624 113.796 38.8784C113.697 38.9913 113.599 39.104 113.502 39.2166C113.611 39.3861 113.642 39.5474 113.653 39.6286C113.677 39.814 113.643 39.9633 113.635 39.9977L113.634 40.0003C113.612 40.0999 113.577 40.1856 113.562 40.2218C113.531 40.2984 113.49 40.3856 113.448 40.4708C113.496 40.4776 113.545 40.488 113.596 40.5029C113.971 40.6135 114.192 40.8978 114.283 41.1575C114.328 41.2863 114.341 41.4052 114.343 41.4974C114.426 41.4369 114.529 41.3709 114.648 41.3197C114.773 41.2652 115.131 41.1336 115.535 41.3118C115.597 41.3388 115.653 41.3698 115.703 41.4034C115.873 41.2095 116.006 41.0454 116.05 40.9862L116.065 40.9672C116.102 40.9175 116.163 40.8362 116.202 40.7934C116.204 40.791 116.243 40.7467 116.299 40.6994C116.316 40.6849 116.36 40.6512 116.387 40.6323C116.43 40.6046 116.556 40.5408 116.639 40.5097C116.806 40.4712 117.273 40.5163 117.54 40.6569C117.752 40.8692 117.933 41.2976 117.946 41.4652C117.942 41.5531 117.92 41.69 117.907 41.7392C117.897 41.7704 117.879 41.8223 117.871 41.8431C117.854 41.8839 117.838 41.9147 117.831 41.9274C117.817 41.9554 117.804 41.9767 117.799 41.9835C117.791 41.9978 117.782 42.0114 117.775 42.0214C117.769 42.0302 117.765 42.0362 117.764 42.0376C117.752 42.0556 117.735 42.0805 117.718 42.1051C117.645 42.2101 117.506 42.4095 117.346 42.6504C117.184 42.893 117.008 43.1675 116.863 43.4195C116.703 43.6954 116.626 43.8655 116.609 43.9248C116.606 43.9343 116.603 43.9438 116.6 43.9532C116.755 43.9524 116.908 43.9477 117.059 43.9388C118.014 43.8823 118.832 43.6571 119.486 43.2229C120.121 42.8011 120.673 42.135 121.036 41.0586ZM85.7623 48.1975C86.427 49.5252 87.3883 50.9477 88.4375 52.2417C89.8875 54.0301 91.6095 55.7015 93.1363 56.5996C94.0456 57.1345 94.9607 57.8238 95.929 58.5879C96.1561 58.7671 96.3869 58.9511 96.6209 59.1376C97.3668 59.7322 98.1448 60.3524 98.9381 60.9259C101.024 62.434 103.419 63.7774 106.254 63.7774C107.672 63.7774 109.156 63.8781 110.698 63.9827L110.73 63.9849C112.271 64.0895 113.866 64.197 115.439 64.197C117.173 64.197 118.476 63.7608 119.668 63.2177C120.115 63.0136 120.518 62.8113 120.911 62.6137C121.61 62.2627 122.279 61.9261 123.123 61.6193C126.472 60.4015 127.467 57.2225 127.492 54.2178C127.516 51.1963 126.591 47.9881 125.698 46.0031C124.76 43.9195 123.628 41.4156 122.209 39.1188C120.795 36.8292 119.044 34.6565 116.822 33.2989C114.725 32.017 112.424 30.2127 110.714 28.5033C110.517 28.3063 110.293 28.0742 110.054 27.8269C109.663 27.4222 109.232 26.9765 108.817 26.5764C108.125 25.9104 107.34 25.2324 106.507 24.7698C106.334 24.6739 106.163 24.577 105.998 24.4832C105.717 24.3234 105.451 24.1727 105.219 24.0511C104.832 23.8488 104.43 23.6671 103.987 23.5699C103.04 23.3623 102.147 23.5907 101 24.1007C99.8079 24.6303 98.7709 25.714 97.8949 26.6316L97.8335 26.6959C96.9111 27.6623 96.1172 28.4941 95.2743 28.9682C94.2812 29.5268 92.9996 30.4162 91.8158 31.3982C90.646 32.3684 89.4895 33.4963 88.816 34.5439C88.4806 35.0657 88.146 35.6844 87.8277 36.2728C87.7131 36.4847 87.6007 36.6926 87.4911 36.8906C87.0521 37.6839 86.6422 38.3529 86.2184 38.812C85.6825 39.3926 85.3859 40.1385 85.2141 40.8721C85.0406 41.6129 84.9766 42.4196 84.9615 43.1959C84.9464 43.9757 84.9805 44.7607 85.0166 45.4601C85.023 45.584 85.0294 45.7044 85.0356 45.8212C85.0653 46.3811 85.0907 46.8594 85.0907 47.2527C85.0907 47.6899 85.3714 48.0616 85.7623 48.1975ZM44.257 44.1369C47.2694 43.3002 50.7126 42.9459 53.9142 43.4604C59.138 44.3 62.4898 46.1817 66.3442 49.1881C66.519 49.2989 66.6867 49.4197 66.8479 49.5509C66.7868 49.1758 66.9435 48.7821 67.2803 48.5575C67.7399 48.2512 68.3607 48.3754 68.6671 48.8349C69.5059 50.0932 70.3312 51.6476 70.7313 53.2992C71.1338 54.9606 71.1184 56.7836 70.1778 58.4768C69.394 59.8875 68.8755 61.4188 68.3689 63.0466C68.3002 63.2672 68.2317 63.49 68.1626 63.7145C67.7303 65.1194 67.2771 66.5922 66.6509 68.0012C65.8554 69.791 64.7692 71.9249 63.4345 73.8805C62.1087 75.8232 60.4886 77.6633 58.6011 78.7818C56.7494 79.8791 54.3307 80.5263 51.9178 80.7398C49.5025 80.9536 46.9935 80.7417 44.9434 80.032C42.6731 79.2462 41.4272 77.2529 40.617 75.2879C40.2062 74.2915 39.8841 73.2443 39.5983 72.2741C39.548 72.1033 39.499 71.9355 39.4509 71.771C39.2203 70.9818 39.0113 70.2667 38.7829 69.6384C38.4274 68.6608 38.2154 67.6114 38.0208 66.6477C37.9825 66.4579 37.9448 66.2715 37.9069 66.0896C37.6672 64.9402 37.4089 63.922 36.9307 63.0341C36.4868 62.2096 35.9974 60.9038 35.6212 59.6108C35.2488 58.3309 34.9464 56.9255 34.9464 55.9165C34.9464 53.4194 36.1891 50.7883 37.8976 48.672C39.6086 46.5525 41.9173 44.7869 44.257 44.1369ZM67.3794 59.7641C66.8966 59.9921 66.3827 60.1652 65.8708 60.2986C63.3279 60.9609 60.135 60.8129 58.4618 60.6842C57.102 60.5796 55.8483 60.3707 54.9776 59.6123C54.0791 58.8296 53.8057 57.6757 53.7866 56.3039C53.7175 56.2742 53.6459 56.2345 53.5751 56.1814C53.0473 55.785 53.171 55.1979 53.2064 55.0715C53.2567 54.8921 53.3441 54.7581 53.3922 54.6897C53.5012 54.5349 53.6456 54.3903 53.7938 54.2615C53.8133 54.2445 53.8329 54.2278 53.8525 54.2112C53.8593 54.1387 53.8668 54.0665 53.875 53.9946C53.5346 53.9699 53.2156 53.7716 53.0519 53.4442C52.805 52.9502 53.0052 52.3496 53.4992 52.1026C53.9091 51.8976 54.3273 51.486 54.9011 50.8948C54.9223 50.8731 54.9437 50.851 54.9653 50.8286C55.3258 50.4568 55.7572 50.0116 56.2468 49.6462C56.2269 49.6496 56.2071 49.653 56.1875 49.6564C55.1577 49.8341 54.2716 50.0398 53.5968 50.3773C51.369 51.4911 49.2541 52.8043 47.0894 54.1483C46.7307 54.3711 46.3707 54.5946 46.0085 54.8183C43.4797 56.3799 40.8644 57.9344 38.0095 59.124C37.8706 59.1818 37.7262 59.2061 37.5852 59.2004C37.935 60.3745 38.3566 61.4635 38.6917 62.0859C39.3182 63.2494 39.6219 64.5167 39.8648 65.6813C39.9082 65.8897 39.9497 66.094 39.9903 66.2945C40.1854 67.2564 40.3628 68.131 40.6625 68.9549C40.9151 69.6498 41.1462 70.4411 41.3768 71.2308C41.4234 71.3905 41.47 71.5502 41.5168 71.709C41.5613 71.86 41.6061 72.0109 41.6515 72.1615C41.8257 72.0891 42.0224 72.0651 42.2216 72.103C45.1977 72.6699 47.7562 72.1493 50.3075 71.1736C51.5936 70.6818 52.8647 70.0796 54.1955 69.441C54.2812 69.3999 54.3672 69.3586 54.4534 69.3172C55.695 68.7209 56.989 68.0996 58.3461 67.5443C60.2575 66.7624 61.8861 65.6626 63.6302 64.4848C63.9349 64.279 64.2432 64.0708 64.5571 63.8615C65.0142 63.5569 65.6308 63.678 65.9389 64.1314C66.0418 63.8049 66.1435 63.4748 66.2463 63.141C66.3165 62.9131 66.3872 62.6835 66.4593 62.4522C66.7347 61.5671 67.0275 60.6624 67.3794 59.7641ZM65.4187 65.6915C65.2066 65.8338 64.9937 65.9778 64.7796 66.1227C63.041 67.2985 61.2221 68.5287 59.1034 69.3954C57.8034 69.9273 56.5598 70.5244 55.3077 71.1256C55.2254 71.1651 55.1431 71.2047 55.0607 71.2442C53.7354 71.8801 52.395 72.5165 51.0219 73.0416C48.3811 74.0516 45.5736 74.6684 42.3166 74.1497C42.3651 74.2762 42.4149 74.4016 42.466 74.5256C43.2132 76.3377 44.1613 77.6449 45.5977 78.1421C47.3187 78.7378 49.5328 78.943 51.7415 78.7476C53.9524 78.552 56.0586 77.9637 57.5815 77.0612C59.1063 76.1577 60.5287 74.5903 61.7826 72.7531C63.0275 70.9289 64.0581 68.9106 64.8233 67.1889C65.0415 66.6979 65.2367 66.199 65.4187 65.6915ZM37.1186 57.3384C37.1572 57.3158 37.1978 57.2955 37.2402 57.2778C39.9368 56.1543 42.436 54.6738 44.9577 53.1166C45.3118 52.8979 45.6667 52.6775 46.0228 52.4563C48.1832 51.1146 50.3853 49.7469 52.7024 48.5884C53.662 48.1086 54.8033 47.8657 55.8472 47.6855C56.186 47.627 56.5119 47.5753 56.8259 47.5255C57.5351 47.413 58.1834 47.3102 58.7813 47.1607C59.3171 47.0267 59.86 47.3525 59.994 47.8883C60.0337 48.0474 60.033 48.2072 59.9982 48.3567C60.508 48.2916 61.0111 48.2551 61.4871 48.2366C59.1571 46.8495 56.756 45.9428 53.5969 45.4351C50.7376 44.9756 47.59 45.2868 44.7923 46.064C42.9724 46.5695 40.9919 48.0231 39.4537 49.9283C37.913 51.8368 36.9464 54.0361 36.9464 55.9165C36.9464 56.2844 37.0086 56.7769 37.1186 57.3384ZM65.2029 50.8344C64.5569 50.448 63.6745 50.2207 62.3381 50.2207C61.2786 50.2207 60.14 50.2991 59.1406 50.5406C59.1143 50.9756 58.8034 51.3582 58.3567 51.4562C57.6647 51.6081 57.1871 51.8201 56.8478 52.0736C56.9525 52.1041 57.054 52.1524 57.1478 52.2192C57.2422 52.2864 57.3215 52.367 57.3848 52.4565C57.6012 52.3007 57.8169 52.1447 58.0321 51.988C58.0351 51.9857 58.0401 51.9821 58.0466 51.9772C58.0948 51.9414 58.2302 51.841 58.3475 51.7703C58.3855 51.7474 58.438 51.7174 58.4987 51.6889C58.5458 51.6669 58.6625 51.6144 58.8147 51.5907C58.917 51.5748 59.4183 51.5143 59.7753 51.9591C59.9832 52.2181 60.0093 52.4927 59.9975 52.6718C60.0947 52.6899 60.3298 52.7476 60.5366 52.9597C60.7909 53.2205 60.8491 53.5514 60.8118 53.8077C60.8113 53.8114 60.8107 53.8152 60.8101 53.8189C60.8237 53.8191 60.8374 53.8196 60.8515 53.8204C61.0624 53.8327 61.4177 53.9279 61.6467 54.2838C61.6474 54.2849 61.6481 54.2859 61.6488 54.287C61.6549 54.2875 61.661 54.2881 61.6672 54.2888C61.7736 54.2999 61.9556 54.3361 62.1401 54.4653C62.346 54.6095 62.4829 54.8199 62.5389 55.0477C62.6117 55.3439 62.5296 55.5852 62.4871 55.6844C62.5832 55.6371 62.6805 55.5895 62.7792 55.5417C62.7373 55.562 63.0637 55.3878 63.3146 55.3063C63.3857 55.2831 63.4978 55.2507 63.6277 55.2366C63.7124 55.2274 64.0346 55.1949 64.3533 55.4002C64.4774 55.4801 64.5853 55.5867 64.6673 55.7145C64.6986 55.6894 64.7298 55.6642 64.761 55.6387C65.1886 55.2893 65.8186 55.3527 66.1681 55.7803C66.5175 56.208 66.4541 56.838 66.0265 57.1874C65.4103 57.6909 64.7633 58.1368 64.0711 58.5328C64.0242 58.5597 63.9672 58.5948 63.8958 58.64C64.4056 58.5743 64.9021 58.4842 65.3667 58.3631C66.4689 58.0761 67.2196 57.6579 67.6057 57.1482C67.9369 56.7111 68.1291 56.0321 67.6922 54.8306C67.087 53.1666 66.5716 52.0793 65.8796 51.3713C65.6512 51.1879 65.4258 51.009 65.2029 50.8344ZM60.8783 58.629C60.8885 58.6827 60.9034 58.7379 60.924 58.7935C60.7609 58.7919 60.6003 58.789 60.4428 58.785C60.5895 58.7358 60.7347 58.6836 60.8783 58.629ZM55.7863 55.8858C55.7858 55.9702 55.7856 56.0563 55.7856 56.1439C55.7856 56.2166 55.7863 56.2865 55.7879 56.3539C55.7974 56.2878 55.8117 56.2341 55.8234 56.1968C55.8553 56.0941 55.897 56.0177 55.9217 55.9761C55.9481 55.9316 55.9752 55.8937 55.9983 55.8639C55.9453 55.8747 55.8732 55.8848 55.789 55.8842C55.7881 55.8847 55.7872 55.8853 55.7863 55.8858ZM55.9444 57.0518C55.8824 56.9581 55.8347 56.852 55.8064 56.7357C55.8169 56.8725 55.8312 56.9961 55.8487 57.108C55.8807 57.0896 55.9126 57.0709 55.9444 57.0518ZM8.33554 77.9223C8.72964 77.7332 9.12679 77.8243 9.38997 77.9998C10.8553 78.9766 11.8518 80.6829 12.5873 82.2983C12.9635 83.1246 13.2898 83.9707 13.5808 84.7507C13.6567 84.9541 13.7297 85.1516 13.8003 85.3427C14.0052 85.8972 14.1906 86.3989 14.3719 86.8421C14.581 87.3532 14.3362 87.9371 13.825 88.1463C13.7802 88.1646 13.7348 88.1795 13.6891 88.1909C14.0445 89.1684 14.4464 90.3181 14.4464 91.6096C14.4464 91.6992 14.4374 91.8778 14.3471 92.0741C14.2404 92.3062 14.0241 92.544 13.689 92.6392C13.4031 92.7204 13.1647 92.6578 13.0522 92.6189C12.9293 92.5765 12.8349 92.5197 12.778 92.4821C12.5795 92.351 12.3936 92.1499 12.2673 92.0071C11.9743 91.6759 11.5996 91.1857 11.235 90.6907C10.8647 90.188 10.4834 89.6508 10.173 89.212L10.0737 89.0716C9.8044 88.6908 9.61848 88.428 9.54591 88.3346C8.78175 87.3522 8.24489 86.4181 7.90649 85.3943C7.56886 84.3729 7.44638 83.3152 7.44638 82.1096C7.44638 81.9759 7.44824 81.0679 7.49974 80.2174C7.52492 79.8018 7.5645 79.3517 7.63268 79.0065C7.66223 78.8569 7.71701 78.6146 7.83617 78.4013C7.89015 78.3047 8.03664 78.0657 8.33554 77.9223ZM11.321 84.4404C11.1466 83.9989 10.9632 83.5578 10.7671 83.127C10.3695 82.2539 9.94174 81.475 9.47134 80.845C9.44764 81.4587 9.44638 82.0102 9.44638 82.1096C9.44638 83.1787 9.5552 84.0096 9.80544 84.7666C10.0549 85.5214 10.4625 86.2555 11.1246 87.1068C11.1614 87.154 11.2125 87.2233 11.2744 87.3089C11.0868 86.6615 10.9464 85.9625 10.9464 85.2207C10.9464 84.9051 11.0926 84.6237 11.321 84.4404ZM103.601 88.6646C103.465 88.6491 103.341 88.6403 103.242 88.6403C102.69 88.6403 102.242 89.088 102.242 89.6403C102.242 89.7918 102.276 89.9354 102.336 90.0641C102.328 90.0769 102.32 90.0897 102.312 90.1024C102.201 90.2817 102.099 90.4812 102.031 90.6906C101.969 90.884 101.903 91.1835 101.983 91.5127C102.079 91.9078 102.356 92.2222 102.739 92.3685C103.058 92.4905 103.374 92.4674 103.597 92.4277C104.051 92.3467 104.587 92.1081 105.183 91.7673C105.494 91.5898 105.923 91.2914 106.09 90.7949C106.316 90.1264 105.946 89.6168 105.67 89.3797C105.615 89.333 105.558 89.2903 105.5 89.2512C105.507 89.0258 105.438 88.7967 105.289 88.6051C104.949 88.1699 104.32 88.0927 103.885 88.4327C103.787 88.5091 103.692 88.5865 103.601 88.6646ZM103.934 91.3057C103.934 91.3051 103.935 91.3043 103.935 91.3034C103.933 91.3105 103.932 91.3115 103.934 91.3057ZM89.2305 97.2076C89.0585 97.427 88.8908 97.641 88.7272 97.8454C88.3822 98.2767 87.7529 98.3466 87.3217 98.0016C86.8904 97.6566 86.8205 97.0273 87.1655 96.596C87.3048 96.4219 87.4553 96.2297 87.6155 96.0251C88.2584 95.2039 89.0583 94.1824 89.9228 93.323C90.9727 92.2794 92.358 91.2207 93.9464 91.2207C94.4987 91.2207 94.9464 91.6684 94.9464 92.2207C94.9464 92.773 94.4987 93.2207 93.9464 93.2207C93.2164 93.2207 92.3361 93.7441 91.3328 94.7414C90.5662 95.5035 89.8687 96.3934 89.2305 97.2076Z" fill="black"/>
</svg>
