<svg width="171" height="138" viewBox="0 0 171 138" fill="none" xmlns="http://www.w3.org/2000/svg">
<path d="M70.0032 0.187876C66.8694 0.423594 61.0956 1.40935 56.2877 2.52367C50.6855 3.83086 37.3349 8.26673 35.5319 9.42392C33.1923 10.924 29.7366 14.6312 25.9804 19.6671C22.3959 24.4459 22.031 24.8531 18.5538 27.7889C16.2357 29.7604 15.5274 30.6175 12.6083 34.9891C11.5136 36.6392 10.1399 38.525 9.58182 39.1679C8.07934 40.9251 6.34075 43.5823 5.18169 45.8967C4.25873 47.7396 4.15141 48.1253 4.08702 49.7111L4.00116 51.4897L4.45191 50.8897C5.18169 49.9682 6.16904 50.2254 6.16904 51.3397C6.16904 51.6397 5.63243 53.2898 4.98851 55.0256C3.07821 60.19 2.73478 61.583 2.49868 65.2045C2.26257 68.9118 1.85476 71.6976 1.25376 73.6691C0.416663 76.4549 -0.184331 82.9909 0.0517736 86.9553C0.309343 91.6698 1.72597 100.37 2.94942 104.87C3.40017 106.585 4.19434 108.256 7.17785 113.956C9.15254 117.685 9.4745 118.671 10.3545 123.857C11.2346 128.935 11.7282 130.885 12.7156 132.921C13.3595 134.271 15.5703 137.421 15.742 137.25C15.7849 137.229 15.2913 135.857 14.6473 134.207C12.5653 128.807 11.299 123.878 11.3204 121.264L11.3419 120.278L11.9858 121.028C12.3507 121.435 13.5527 122.957 14.6688 124.392C17.9957 128.635 19.7773 130.071 25.2506 132.793C27.8907 134.121 32.3337 135.9 32.5269 135.707C32.6986 135.536 31.4323 134.4 29.7795 133.264C29.1356 132.814 27.1394 131.657 25.3365 130.714C19.9704 127.864 18.8543 127.007 16.343 123.664C13.982 120.535 12.3078 117.878 11.7282 116.356C11.4921 115.671 10.8911 113.635 10.4189 111.813C9.94671 109.992 8.9379 106.263 8.16519 103.563C6.10464 96.2771 3.89384 87.341 3.59335 85.0909C3.40017 83.6766 3.35724 80.6979 3.4431 74.3763C3.57188 64.3902 3.63627 63.983 5.52511 58.3471C7.0276 53.8684 7.19931 53.1612 7.67152 48.9825C7.90763 46.9467 8.22959 44.7823 8.42276 44.1823C8.87351 42.6394 10.097 40.8822 12.3078 38.525C14.8835 35.8034 16.021 34.4105 18.1889 31.3461C19.4124 29.6104 21.1724 27.5746 23.5549 25.1316C25.7228 22.903 27.9765 20.3315 29.3288 18.5314C34.2011 11.9954 37.0129 9.87394 42.2072 8.8239C47.5732 7.731 53.3471 7.70957 59.3141 8.75961C64.6586 9.7025 69.3164 10.1311 68.4149 9.61678C67.9426 9.33821 63.7357 8.00958 60.9024 7.2167C59.5502 6.8524 58.3911 6.4881 58.3267 6.44524C58.1765 6.2738 65.8606 6.55239 68.4792 6.80954C73.738 7.32384 75.3478 7.90244 80.7138 11.1383C82.8173 12.4026 86.1871 14.2884 88.2047 15.2956C92.7766 17.6099 95.1806 19.2171 97.0909 21.2101C99.0012 23.2244 100.182 25.2602 102.307 30.2318C104.281 34.882 105.161 36.2535 108.166 39.5322C109.39 40.8393 110.699 42.4251 111.064 43.068C112.008 44.6323 113.167 47.761 114.97 53.6327C115.786 56.3328 116.795 59.4186 117.203 60.4901C119.607 66.8117 122.075 77.3978 122.504 83.2052C122.612 84.8552 122.719 88.8625 122.719 92.0983C122.719 95.6556 122.848 99.17 123.041 100.992C123.449 104.849 123.449 108.556 123.041 110.228C122.869 110.956 122.139 112.885 121.41 114.513C119.65 118.499 117.954 122.828 116.666 126.6C115.464 130.135 113.768 135.943 113.554 137.186L113.425 138L114.069 137.679C114.928 137.229 116.816 133.457 118.984 127.778C119.886 125.421 121.453 121.714 122.461 119.528C125.66 112.563 126.647 109.478 126.647 106.456C126.647 104.892 126.325 103.477 124.994 99.02C123.17 92.9555 124.2 85.7553 127.935 78.4907C129.351 75.7692 130.661 74.4406 133.752 72.5976C135.039 71.8262 136.22 70.9904 136.392 70.7547C137.1 69.6618 137.143 67.9689 136.671 61.4329C136.113 53.8041 136.048 53.2041 134.932 48.061C133.472 41.3108 133.086 39.8107 132.507 39.0607C131.777 38.1178 130.274 37.1964 127.87 36.2535C126.754 35.8249 125.767 35.3963 125.681 35.332C125.402 35.0963 126.067 31.4104 126.583 30.2104C127.849 27.2746 132.743 25.0245 136.606 25.6245C142.165 26.5031 147.939 31.4533 151.159 38.1178C152.06 39.9822 154.078 46.0895 154.829 49.1325C157.169 58.8829 156.847 67.3474 153.863 73.562C153.305 74.7406 151.738 77.3549 150.365 79.3693L147.896 83.0337L153.177 83.0123L158.457 82.9909L159.616 83.6123C161.075 84.3623 162.986 86.2696 163.758 87.7268C165.754 91.434 165.218 95.6556 162.449 98.1628C160.775 99.6629 159.637 100.006 152.597 100.992C149.828 101.399 147.553 101.742 147.51 101.784C147.489 101.827 147.381 102.234 147.317 102.727L147.167 103.606L150.021 103.756C155.881 104.056 158.822 104.635 161.762 106.07C163.887 107.12 165.969 108.942 166.27 109.992C166.806 111.942 165.325 114.063 163.029 114.621C162.234 114.813 159.723 114.899 154.7 114.921C147.918 114.942 145.557 115.092 145.793 115.456C145.9 115.628 148.798 116.099 153.305 116.656C158.779 117.342 161.419 118.542 164.81 121.885C166.527 123.578 167.021 124.221 167.751 125.742C169.21 128.721 169.232 128.593 167.128 129.578C162.299 131.828 160.217 132.107 154.164 131.207C147.36 130.221 144.441 129.45 139.461 127.392C137.615 126.621 132.957 125.528 132.678 125.807C132.592 125.871 132.914 126.364 133.365 126.857C135.426 129.107 137.508 132.236 138.946 135.278C139.568 136.586 139.869 137.036 139.869 136.671C139.89 135.621 139.053 132.643 138.109 130.435C137.572 129.214 137.164 128.185 137.186 128.143C137.229 128.121 137.958 128.4 138.838 128.764C143.475 130.671 149.871 132.15 156.954 132.9C161.719 133.414 163.522 132.964 168.759 129.964C169.597 129.493 170.305 129.085 170.348 129.043C170.477 128.935 169.253 125.485 168.716 124.392C168.051 123.064 166.956 122.014 163.823 119.699C162.406 118.649 161.247 117.685 161.247 117.556C161.247 117.406 162.47 116.464 163.973 115.456C165.475 114.449 166.871 113.463 167.064 113.271C167.321 113.035 167.45 112.413 167.536 111.342C167.708 108.428 166.699 107.356 161.29 104.72C159.53 103.863 158.049 103.027 157.984 102.877C157.813 102.427 158.929 101.356 160.303 100.649C163.951 98.8057 165.282 97.22 165.862 94.027C166.355 91.2626 165.754 88.7339 163.887 85.9695C161.698 82.7123 160.088 81.9623 154.443 81.6194C152.79 81.5122 151.395 81.3837 151.331 81.3194C151.288 81.2551 151.953 79.8622 152.855 78.2121C156.224 72.019 157.169 68.9761 157.705 62.6973C158.027 58.9471 157.727 56.4828 156.267 50.3111C153.799 39.8536 151.738 35.3106 147.381 30.7247C144.462 27.6389 141.371 25.5388 138.474 24.6816C136.799 24.1887 133.773 24.1887 132.077 24.6816C128.922 25.6031 126.046 27.8532 124.951 30.2532C123.878 32.6319 123.857 35.4391 124.908 37.5392C125.144 38.0321 126.776 39.8536 128.514 41.6322C133.923 47.1396 134.996 49.6682 135.383 57.8971C135.49 60.1472 135.683 63.1901 135.812 64.6473C135.962 66.1045 136.005 67.8189 135.919 68.4618C135.791 69.5118 135.683 69.6832 134.889 70.2618C134.395 70.6261 133.151 71.3547 132.12 71.869C129.759 73.0691 129.008 73.8191 127.763 76.2621C126.776 78.255 125.273 80.5265 124.479 81.2337C124.071 81.598 124.05 81.598 123.9 81.1265C123.835 80.8479 123.685 76.9264 123.578 72.3833C123.384 63.1473 123.277 62.2044 121.839 58.5614C120.465 55.0256 117.932 50.0754 115.722 46.6038C111.987 40.7751 111.407 39.4893 109.712 33.0819C108.016 26.7174 107.329 25.3674 103.38 20.7172C102.135 19.26 100.203 16.9028 99.0656 15.4884C95.8459 11.4597 95.4381 11.074 87.8399 5.20234C82.5597 1.13076 81.2504 0.466453 77.7732 0.166441C75.2404 -0.069277 73.3087 -0.0478536 70.0032 0.187876ZM75.9273 1.68793C81.787 2.15937 83.3968 2.78082 86.273 5.67378C87.3032 6.70239 88.6769 8.22388 89.3423 9.05962C90.8234 10.9025 94.2576 16.0242 94.1074 16.1527C93.9571 16.3027 89.9648 14.5027 87.153 13.024C85.8222 12.3383 83.3968 10.924 81.787 9.89536C75.2404 5.78093 75.4121 5.82379 69.4237 5.41664C66.9553 5.2452 64.8733 5.05233 64.7874 4.98805C64.6801 4.94519 63.1776 5.03091 61.4176 5.20234C59.6575 5.37378 56.8243 5.52378 55.1071 5.50235H51.9948L52.6388 4.98805C54.0339 3.83086 55.0857 3.48799 57.2535 3.46656C58.7131 3.44513 59.8507 3.27369 61.2888 2.88797C64.165 2.09508 66.5046 1.64507 68.7368 1.45221C70.733 1.28077 71.0979 1.28077 75.9273 1.68793ZM94.5366 11.9954C95.803 13.3026 97.606 15.6813 97.606 16.067C97.606 16.7956 94.7513 14.0098 93.6781 12.2097C92.4117 10.1739 92.6693 10.1097 94.5366 11.9954ZM104.947 26.9531C106.707 29.0961 108.016 31.1533 108.317 32.2033C108.681 33.5105 108.896 37.6249 108.574 37.3249C108.338 37.1106 102.993 25.6674 102.521 24.3816C102.35 23.9102 102.414 23.953 102.993 24.5959C103.358 25.0031 104.238 26.0745 104.947 26.9531ZM128.858 38.4393C130.446 39.1893 132.764 41.6322 132.313 42.0822C132.249 42.1465 131.562 41.9108 130.789 41.5251C129.416 40.8822 127.012 38.8893 126.561 38.0535C126.346 37.6464 126.389 37.6464 127.055 37.7749C127.441 37.8607 128.257 38.1607 128.858 38.4393ZM118.855 54.7041C121.388 59.8257 122.59 64.1759 122.461 67.7975L122.397 69.7047L121.989 68.8475C121.603 68.0118 118.791 60.2115 117.568 56.5256C116.881 54.447 116.28 51.7255 116.28 50.6968L116.301 49.9897L116.838 50.8468C117.117 51.3183 118.04 53.0541 118.855 54.7041ZM2.17672 87.491C2.36989 88.3053 2.73478 89.6125 2.97089 90.384C3.20699 91.1554 3.87238 93.7913 4.45191 96.2771C5.03144 98.7414 5.93293 102.17 6.46953 103.884C7.99348 108.62 9.71061 115.028 9.4745 115.028C9.17401 115.028 5.6539 108.92 4.77387 106.885C2.56307 101.72 0.910337 88.5625 1.36108 79.6693L1.55426 76.1335L1.68304 81.0622C1.7689 84.5552 1.91915 86.4196 2.17672 87.491Z" fill="black"/>
<path d="M140.234 3.8523C139.59 4.83805 138.753 6.95956 138.238 8.95248C137.83 10.5383 137.68 11.674 137.615 14.0955L137.529 17.2028L138.173 15.917C139.01 14.2241 139.783 11.8026 140.212 9.57394C140.577 7.62386 140.899 3.38085 140.685 3.38085C140.599 3.38085 140.405 3.59515 140.234 3.8523Z" fill="black"/>
<path d="M116.28 12.0169C116.28 12.0812 116.666 13.3026 117.138 14.7598C118.104 17.6957 120.229 22.153 121.217 23.3101C121.839 24.0602 121.839 24.0602 121.86 23.503C121.86 22.6244 121.453 20.5243 120.959 19.0243C120.336 17.0528 119.478 15.4456 118.297 13.967C117.396 12.8312 116.28 11.7597 116.28 12.0169Z" fill="black"/>
<path d="M165.111 19.9029C163.394 21.0601 161.741 22.6673 160.474 24.4673C159.165 26.3102 159.101 26.7388 160.26 26.0531C162.685 24.6173 165.239 22.0672 166.463 19.9029C167.085 18.7671 166.785 18.7885 165.111 19.9029Z" fill="black"/>
<path d="M34.3085 31.4533C30.4664 32.2462 26.6458 34.4963 23.555 37.8178C18.7685 42.918 17.1157 46.711 17.3948 51.9183C17.6309 56.7399 19.4983 59.89 24.156 63.383C26.9463 65.4831 30.123 67.0689 32.9133 67.7975C35.768 68.5261 39.095 68.4403 41.6921 67.5832C52.3812 64.0045 56.3306 56.0756 53.0681 44.6323C52.7676 43.5609 52.1451 41.9108 51.6729 40.9465C50.9646 39.4893 50.4924 38.9107 48.9255 37.4535C46.543 35.2034 43.1088 32.6105 41.5848 31.9033C40.5545 31.4319 40.0823 31.3461 37.8286 31.3033C36.412 31.2819 34.8236 31.3461 34.3085 31.4533ZM40.297 33.2748C40.8336 33.4462 41.7136 33.9605 42.2717 34.4105C49.7841 40.3893 49.9343 40.5393 51.2866 44.5252C53.7549 51.7897 52.4027 58.6686 47.745 62.5044C46.1137 63.8759 42.7009 65.5688 40.4257 66.1688C37.0988 67.0046 33.6002 66.6188 30.0801 65.0116C26.5814 63.383 22.5247 60.1686 20.8934 57.7042C18.6182 54.297 18.4036 49.3682 20.3354 45.2324C21.5803 42.5323 25.4653 37.9892 28.1698 36.0606C32.1621 33.2319 36.9271 32.1176 40.297 33.2748Z" fill="black"/>
<path d="M37.4208 45.2752C36.369 45.6395 35.1456 46.6253 34.609 47.5253C34.287 48.1253 34.2012 48.6611 34.1797 50.5468C34.1797 51.8112 34.2441 52.9041 34.3299 52.9898C34.3943 53.0755 35.6607 53.1398 37.1203 53.1612C39.4384 53.2041 39.8462 53.1612 40.5116 52.7541C42.0999 51.8326 42.7009 50.0754 42.2287 47.6539C41.9497 46.1324 41.6063 45.7038 40.3613 45.2538C39.3311 44.8895 38.4725 44.8895 37.4208 45.2752Z" fill="black"/>
<path d="M84.5559 33.6819C82.9461 34.0891 80.5851 35.3106 78.6104 36.7678C73.8024 40.3465 67.9213 48.1682 66.5905 52.7541C66.0324 54.6184 66.2041 56.9328 66.9983 58.5614C67.7281 60.0615 70.7331 63.1901 72.3429 64.1116C74.8756 65.5902 78.5031 66.276 84.9423 66.5331C90.6088 66.7474 92.5835 66.0831 95.6958 62.9759C97.3915 61.2829 99.5379 58.1971 100.611 55.9685C101.813 53.5041 102.178 51.0183 101.663 49.1325C101.341 47.9325 95.7387 36.7035 95.0733 35.932C93.4421 33.9605 88.0975 32.8462 84.5559 33.6819ZM91.5961 35.632C93.3347 36.1035 93.5065 36.2535 92.9698 36.8321C92.4547 37.3892 91.6176 37.8392 90.2654 38.225C89.4927 38.4607 89.1063 38.7178 88.8058 39.2321C88.5697 39.5964 88.4195 39.9179 88.4624 39.9607C88.4839 40.0036 89.8146 39.8322 91.3815 39.5964C92.9484 39.3393 94.2577 39.1893 94.2792 39.2107C94.7299 39.6822 98.1212 45.3824 98.9369 47.0324C100.654 50.5254 100.568 52.2398 98.5505 56.097C96.5114 59.9329 94.0431 62.7401 91.7249 63.8759C90.0293 64.7116 89.0205 64.8616 85.5218 64.8831C80.0055 64.8831 76.4425 64.3045 73.7166 62.933C71.2053 61.6687 68.3076 58.1328 67.8998 55.8827C67.5349 53.7398 69.8745 48.8111 73.3302 44.5252C74.94 42.5108 78.3957 39.0821 80.0055 37.8821C81.508 36.7892 83.2466 35.8463 84.6203 35.3749C85.8008 34.9891 89.7932 35.1391 91.5961 35.632Z" fill="black"/>
<path d="M80.1985 44.1395C79.4687 44.5252 78.5672 45.2109 78.2023 45.6609C77.6013 46.411 77.5369 46.6681 77.4725 48.1253C77.4082 49.6039 77.4511 49.904 78.0092 50.954C78.374 51.6397 79.018 52.4112 79.5546 52.8183C80.3487 53.4184 80.6492 53.5255 81.701 53.5255C83.3537 53.5255 84.7274 53.0326 85.6718 52.0897C88.1617 49.5825 85.6718 43.4537 82.1517 43.4537C81.8298 43.4537 80.9497 43.7752 80.1985 44.1395ZM82.7956 45.5967C83.3108 46.111 83.3322 46.6038 82.86 47.1396C82.3664 47.6753 81.4005 47.6324 80.9927 47.0538C80.5419 46.4324 80.5634 46.1967 81.0785 45.6395C81.6366 45.0609 82.2376 45.0395 82.7956 45.5967ZM85.0279 49.5611C85.1996 50.0325 84.9421 50.5254 84.5128 50.5254C84.0835 50.5254 83.7401 49.8182 83.9762 49.4539C84.1693 49.1325 84.8777 49.1968 85.0279 49.5611Z" fill="black"/>
<path d="M94.3866 76.9264C94.3866 76.9907 95.2667 77.5907 96.3399 78.2764L98.2931 79.5193L98.1643 81.2551C97.7565 86.3553 96.9194 90.5126 95.1164 96.6199C92.2617 106.285 91.2958 108.32 87.9903 111.406C85.0498 114.171 80.4135 117.192 77.1724 118.478C75.6056 119.099 69.9605 120.514 66.6121 121.135C60.688 122.228 56.8245 122.207 52.5746 121.114C49.6126 120.342 44.8905 118.542 43.5811 117.685C42.2504 116.828 39.6961 114.471 39.8893 114.299C39.9752 114.213 41.0055 113.956 42.2074 113.699C44.3324 113.249 44.7402 113.056 44.0104 112.821C43.7958 112.756 42.9158 112.456 42.0572 112.156C41.1772 111.856 40.061 111.599 39.5888 111.599C38.4083 111.62 37.0346 112.242 36.4551 113.056C36.0473 113.635 35.1028 116.721 35.2745 116.914C35.296 116.956 35.9185 116.592 36.6268 116.121C37.3351 115.628 37.979 115.242 38.0649 115.242C38.1507 115.242 38.7732 115.821 39.46 116.506C42.1645 119.292 45.4485 120.964 51.2438 122.485C54.8498 123.449 56.8889 123.685 60.2587 123.535C66.698 123.257 76.5285 120.921 80.8643 118.649C83.3112 117.364 87.8186 114.063 89.9006 112.028C92.8627 109.113 93.8286 107.185 96.1682 99.3843C98.057 93.1269 99.1517 87.8553 99.8814 81.5337C99.9673 80.8479 100.096 80.2693 100.182 80.2051C100.246 80.1622 100.869 80.8265 101.534 81.6623C102.221 82.5194 103.144 83.6338 103.616 84.1695C104.325 84.9838 104.453 85.0695 104.475 84.6838C104.475 84.0623 103.681 81.4694 103.144 80.4622C102.522 79.2193 101.255 77.9335 100.182 77.4621C99.4522 77.1407 98.5936 76.9907 96.8121 76.9264C95.4813 76.8621 94.3866 76.8835 94.3866 76.9264Z" fill="black"/>
<path d="M158.521 89.6125C157.985 89.7625 157.255 90.0625 156.911 90.2768L156.31 90.684L157.384 90.8554C157.985 90.9626 158.929 90.984 159.53 90.9197C160.56 90.7911 161.998 90.1054 161.998 89.7411C161.998 89.2697 160.045 89.2054 158.521 89.6125Z" fill="black"/>
<path d="M158.564 92.2912C158.07 93.2127 158.65 94.2413 159.68 94.2413C160.624 94.2413 161.118 92.5484 160.302 92.0984C159.637 91.7555 158.821 91.8412 158.564 92.2912Z" fill="black"/>
<path d="M158.564 109.006C158.564 109.97 158.607 110.099 159.015 110.099C159.959 110.099 163.951 109.392 163.78 109.242C163.694 109.156 162.599 108.878 161.354 108.599C160.109 108.32 158.972 108.063 158.843 107.999C158.65 107.935 158.564 108.213 158.564 109.006Z" fill="black"/>
<path d="M157.233 111.963C157.684 112.799 158.586 113.163 160.389 113.271C161.998 113.378 162.084 113.356 161.805 113.013C161.247 112.349 159.873 111.792 158.414 111.663C157.062 111.535 157.019 111.556 157.233 111.963Z" fill="black"/>
<path d="M159.423 124.071C159.423 124.221 159.68 124.735 159.959 125.207C160.26 125.678 160.496 126.171 160.496 126.321C160.496 126.45 159.959 126.942 159.294 127.414C158.629 127.885 158.178 128.314 158.285 128.378C158.371 128.421 159.23 128.55 160.195 128.614L161.913 128.764L162.492 126.857C162.793 125.828 163.115 124.8 163.179 124.628C163.329 124.264 163.372 124.264 160.346 123.9C159.659 123.814 159.423 123.857 159.423 124.071Z" fill="black"/>
</svg>
