<svg width="54" height="36" viewBox="0 0 54 36" fill="none" xmlns="http://www.w3.org/2000/svg">
<g clip-path="url(#clip0_1277_75)">
<path d="M51.6872 19.4089L7.51479 35.5488C6.53614 35.9064 5.5 35.1818 5.5 34.1399L5.5 1.86009C5.5 0.818163 6.53614 0.0936114 7.51479 0.451193L51.6872 16.5911C53.0008 17.0711 53.0008 18.9289 51.6872 19.4089Z" fill="#F5B6CC" stroke="#C10018"/>
<path d="M17.1442 13.2727V22H15.5504L11.7536 16.5071H11.6896V22H9.84446V13.2727H11.4638L15.2308 18.7614H15.3075V13.2727H17.1442ZM26.6886 17.6364C26.6886 18.5881 26.5082 19.3977 26.1474 20.0653C25.7894 20.733 25.3008 21.2429 24.6815 21.5952C24.065 21.9446 23.3718 22.1193 22.6019 22.1193C21.8263 22.1193 21.1303 21.9432 20.5138 21.5909C19.8974 21.2386 19.4102 20.7287 19.0522 20.0611C18.6942 19.3935 18.5153 18.5852 18.5153 17.6364C18.5153 16.6847 18.6942 15.875 19.0522 15.2074C19.4102 14.5398 19.8974 14.0312 20.5138 13.6818C21.1303 13.3295 21.8263 13.1534 22.6019 13.1534C23.3718 13.1534 24.065 13.3295 24.6815 13.6818C25.3008 14.0312 25.7894 14.5398 26.1474 15.2074C26.5082 15.875 26.6886 16.6847 26.6886 17.6364ZM24.8178 17.6364C24.8178 17.0199 24.7255 16.5 24.5408 16.0767C24.359 15.6534 24.1019 15.3324 23.7695 15.1136C23.4371 14.8949 23.0479 14.7855 22.6019 14.7855C22.1559 14.7855 21.7667 14.8949 21.4343 15.1136C21.1019 15.3324 20.8434 15.6534 20.6587 16.0767C20.4769 16.5 20.386 17.0199 20.386 17.6364C20.386 18.2528 20.4769 18.7727 20.6587 19.196C20.8434 19.6193 21.1019 19.9403 21.4343 20.1591C21.7667 20.3778 22.1559 20.4872 22.6019 20.4872C23.0479 20.4872 23.4371 20.3778 23.7695 20.1591C24.1019 19.9403 24.359 19.6193 24.5408 19.196C24.7255 18.7727 24.8178 18.2528 24.8178 17.6364ZM27.3246 14.794V13.2727H34.4922V14.794H31.8203V22H29.9964V14.794H27.3246Z" fill="#C10018"/>
</g>
<defs>
<clipPath id="clip0_1277_75">
<rect width="54" height="36" fill="white"/>
</clipPath>
</defs>
</svg>
