<svg width="54" height="36" viewBox="0 0 54 36" fill="none" xmlns="http://www.w3.org/2000/svg">
<g clip-path="url(#clip0_1277_71)">
<path d="M5.8253 35.5C5.94093 35.2707 6.07852 34.9918 6.23268 34.6681C6.70657 33.6729 7.33773 32.2527 7.96887 30.5487C9.22862 27.1473 10.5 22.584 10.5 18C10.5 13.416 9.22862 8.85267 7.96887 5.45134C7.33773 3.74726 6.70657 2.32707 6.23268 1.33191C6.07852 1.00818 5.94093 0.729258 5.8253 0.5H26.7358C36.6642 0.5 45.8771 5.66692 51.0543 14.1387L53.414 18L51.0543 21.8613C45.8771 30.3331 36.6642 35.5 26.7358 35.5H5.8253Z" fill="#ABD4ED" stroke="#10479E"/>
<path d="M28.1476 17.6364C28.1476 18.5881 27.9672 19.3977 27.6064 20.0653C27.2484 20.733 26.7598 21.2429 26.1404 21.5952C25.524 21.9446 24.8308 22.1193 24.0609 22.1193C23.2853 22.1193 22.5893 21.9432 21.9728 21.5909C21.3564 21.2386 20.8691 20.7287 20.5112 20.0611C20.1532 19.3935 19.9743 18.5852 19.9743 17.6364C19.9743 16.6847 20.1532 15.875 20.5112 15.2074C20.8691 14.5398 21.3564 14.0312 21.9728 13.6818C22.5893 13.3295 23.2853 13.1534 24.0609 13.1534C24.8308 13.1534 25.524 13.3295 26.1404 13.6818C26.7598 14.0312 27.2484 14.5398 27.6064 15.2074C27.9672 15.875 28.1476 16.6847 28.1476 17.6364ZM26.2768 17.6364C26.2768 17.0199 26.1845 16.5 25.9998 16.0767C25.818 15.6534 25.5609 15.3324 25.2285 15.1136C24.8961 14.8949 24.5069 14.7855 24.0609 14.7855C23.6149 14.7855 23.2257 14.8949 22.8933 15.1136C22.5609 15.3324 22.3024 15.6534 22.1177 16.0767C21.9359 16.5 21.845 17.0199 21.845 17.6364C21.845 18.2528 21.9359 18.7727 22.1177 19.196C22.3024 19.6193 22.5609 19.9403 22.8933 20.1591C23.2257 20.3778 23.6149 20.4872 24.0609 20.4872C24.5069 20.4872 24.8961 20.3778 25.2285 20.1591C25.5609 19.9403 25.818 19.6193 25.9998 19.196C26.1845 18.7727 26.2768 18.2528 26.2768 17.6364ZM29.5144 22V13.2727H32.9576C33.6167 13.2727 34.1792 13.3906 34.6451 13.6264C35.1138 13.8594 35.4703 14.1903 35.7147 14.6193C35.9618 15.0455 36.0854 15.5469 36.0854 16.1236C36.0854 16.7031 35.9604 17.2017 35.7104 17.6193C35.4604 18.0341 35.0982 18.3523 34.6238 18.5739C34.1522 18.7955 33.5811 18.9062 32.9107 18.9062H30.6053V17.4233H32.6124C32.9647 17.4233 33.2573 17.375 33.4902 17.2784C33.7232 17.1818 33.8965 17.0369 34.0101 16.8438C34.1266 16.6506 34.1848 16.4105 34.1848 16.1236C34.1848 15.8338 34.1266 15.5895 34.0101 15.3906C33.8965 15.1918 33.7218 15.0412 33.486 14.9389C33.253 14.8338 32.959 14.7812 32.6039 14.7812H31.3596V22H29.5144ZM34.2275 18.0284L36.3965 22H34.3596L32.2374 18.0284H34.2275Z" fill="#10479E"/>
</g>
<defs>
<clipPath id="clip0_1277_71">
<rect width="54" height="36" fill="white"/>
</clipPath>
</defs>
</svg>
