<svg width="127" height="127" viewBox="0 0 127 127" fill="none" xmlns="http://www.w3.org/2000/svg">
<g clip-path="url(#clip0_3406_14)">
<rect width="127" height="127" fill="white"/>
<path d="M59.302 22.0751C57.8337 22.1962 55.9201 22.6444 54.9212 23.1047C54.5602 23.2621 54.2473 23.3711 54.2111 23.3348C54.175 23.2985 54.3556 23.0441 54.6203 22.7776L55.0897 22.281L54.4278 22.608C53.3928 23.1289 52.5262 23.7224 51.8162 24.3886C51.082 25.1033 50.733 25.6241 50.5164 26.3388L50.3719 26.8354L49.4813 26.9808C47.9168 27.2231 45.5097 28.4586 44.559 29.5124L44.2581 29.8395L44.7997 29.573C45.0885 29.4155 45.4977 29.258 45.7023 29.1975L46.0634 29.1006L45.7625 29.3065C44.4145 30.1907 43.1027 32.6254 43.1268 34.2365V34.5999L43.4397 34.079C43.6082 33.7883 43.7646 33.5824 43.7767 33.5945C43.8007 33.6187 43.6804 34.0911 43.5239 34.6604C43.1268 36.0171 42.7898 38.0399 42.6935 39.6873C42.525 42.3522 43.0907 46.7128 44.0053 49.947L44.5108 51.7397H44.0294C43.4156 51.7397 42.8259 52.091 42.5732 52.5997C42.3084 53.1085 42.2001 54.9617 42.3806 56.0883C42.4648 56.6576 42.7417 57.4934 43.1027 58.3292C43.4277 59.068 43.7767 60.0492 43.885 60.5095C44.5108 63.0774 45.4616 65.282 46.2318 65.9119C46.6771 66.2874 47.2789 66.3964 47.5437 66.1299C47.7122 65.9603 47.7001 65.9482 48.0492 67.426C48.5426 69.5094 48.9277 70.5875 49.8785 72.6103L50.8533 74.6574L50.7811 77.0921C50.6848 79.866 50.5765 80.6897 50.2757 80.8714C48.6629 81.8283 47.3993 82.8095 46.2078 84.0207C44.7395 85.4985 44.7034 85.5228 42.1399 86.625C36.4473 89.084 32.5358 90.5739 26.6868 92.5362C22.7633 93.8444 20.9219 94.5954 19.1648 95.6007C15.5783 97.6357 13.7971 99.6586 12.726 102.893C11.8835 105.424 11.4262 108.307 11.2336 112.305C11.0531 115.926 10.9328 124.163 11.0411 125.726L11.1253 127.082H63.8152H116.505L116.577 126.634C116.613 126.38 116.698 123.037 116.77 119.209C116.938 110.584 116.854 108.574 116.24 106.066C115.049 101.197 112.943 97.4904 110.487 95.9036C110.114 95.6734 108.538 94.9588 106.997 94.3289C105.457 93.699 103.242 92.8026 102.087 92.3181C94.6011 89.2293 88.7039 86.9036 85.4544 85.7287C84.0824 85.2442 83.0233 84.5295 82.229 83.5847C80.8209 81.8646 79.2081 80.4232 78.3416 80.0961C78.125 80.0114 77.9926 79.8418 77.9083 79.5147C77.6797 78.691 77.6195 77.2738 77.7639 75.9414C77.8963 74.7664 77.9685 74.5121 78.5703 73.216C79.3646 71.5444 80.2793 68.8069 80.6764 67.002C80.8209 66.2995 80.9653 65.7059 80.9893 65.6817C81.0134 65.6454 81.1458 65.7423 81.3023 65.8876C81.7235 66.2874 82.2891 66.2389 82.7465 65.7544C83.6611 64.7854 84.7443 61.6723 85.2257 58.6441C85.3822 57.6872 85.671 56.5122 85.9238 55.7975C86.5737 53.9321 86.6579 53.5688 86.5375 53.0116C86.3209 52.0304 85.7553 51.5701 84.8647 51.6791L84.299 51.7397L84.648 50.4678C85.2739 48.1179 85.4183 46.8461 85.4183 43.9268C85.4062 40.3414 85.0572 38.5729 83.6732 35.2661C82.4937 32.4316 81.2902 30.5662 79.4609 28.713C76.3317 25.5515 72.9378 24.1464 65.9093 23.0925C64.8382 22.9351 61.9858 22.717 60.0241 22.6322L59.302 22.608L60.1445 22.4384C60.6138 22.3536 61.8053 22.2325 62.7922 22.1841C63.7911 22.1356 64.3447 22.0993 64.0439 22.0872C63.743 22.0751 62.8524 22.0387 62.0581 22.0145C61.2758 21.9781 60.0362 22.0145 59.302 22.0751Z" fill="#8D8D8D"/>
</g>
<defs>
<clipPath id="clip0_3406_14">
<rect width="127" height="127" fill="white"/>
</clipPath>
</defs>
</svg>
