<svg width="32" height="32" viewBox="0 0 32 32" fill="none" xmlns="http://www.w3.org/2000/svg">
<path d="M5.77783 10C2.59737 10 0 12.5974 0 15.7778C0 18.9583 2.59737 21.5557 5.77783 21.5557H26.2222C29.4026 21.5557 32 18.9583 32 15.7778C32 12.5974 29.4026 10 26.2222 10C23.0417 10 20.4443 12.5974 20.4443 15.7778C20.4443 17.3254 21.0576 18.7385 22.0555 19.7776H9.94447C10.9424 18.7381 11.5557 17.3254 11.5557 15.7778C11.5557 12.5974 8.95829 10 5.77783 10ZM5.77783 11.7776C6.30359 11.7758 6.8245 11.8781 7.31057 12.0785C7.79665 12.2789 8.23829 12.5734 8.61006 12.9452C8.98183 13.317 9.27638 13.7586 9.47677 14.2447C9.67715 14.7308 9.77941 15.2517 9.77765 15.7774C9.77941 16.3032 9.67715 16.8241 9.47677 17.3102C9.27638 17.7963 8.98183 18.2379 8.61006 18.6097C8.23829 18.9814 7.79665 19.276 7.31057 19.4764C6.8245 19.6768 6.30359 19.779 5.77783 19.7773C5.25207 19.779 4.73116 19.6768 4.24508 19.4764C3.75901 19.276 3.31737 18.9814 2.9456 18.6097C2.57383 18.2379 2.27927 17.7963 2.07889 17.3102C1.8785 16.8241 1.77625 16.3032 1.77801 15.7774C1.77625 15.2517 1.8785 14.7308 2.07889 14.2447C2.27927 13.7586 2.57383 13.317 2.9456 12.9452C3.31737 12.5734 3.75901 12.2789 4.24508 12.0785C4.73116 11.8781 5.25207 11.7758 5.77783 11.7776V11.7776ZM26.2222 11.7776C26.7479 11.7758 27.2688 11.8781 27.7549 12.0785C28.241 12.2789 28.6826 12.5734 29.0544 12.9452C29.4262 13.317 29.7207 13.7586 29.9211 14.2447C30.1215 14.7308 30.2238 15.2517 30.222 15.7774C30.2238 16.3032 30.1215 16.8241 29.9211 17.3102C29.7207 17.7963 29.4262 18.2379 29.0544 18.6097C28.6826 18.9814 28.241 19.276 27.7549 19.4764C27.2688 19.6768 26.7479 19.779 26.2222 19.7773C25.6964 19.779 25.1755 19.6768 24.6894 19.4764C24.2033 19.276 23.7617 18.9814 23.3899 18.6097C23.0182 18.2379 22.7236 17.7963 22.5232 17.3102C22.3228 16.8241 22.2206 16.3032 22.2223 15.7774C22.2206 15.2517 22.3228 14.7308 22.5232 14.2447C22.7236 13.7586 23.0182 13.317 23.3899 12.9452C23.7617 12.5734 24.2033 12.2789 24.6894 12.0785C25.1755 11.8781 25.6964 11.7758 26.2222 11.7776V11.7776Z" fill="black"/>
</svg>
