<svg width="385" height="433" viewBox="0 0 385 433" xmlns="http://www.w3.org/2000/svg"><path d="M192.5 0a17.503 17.503 0 00-12.375 5.125A17.512 17.512 0 00175 17.5v397.6c0 6.25 3.336 12.027 8.75 15.156a17.505 17.505 0 0017.5 0A17.508 17.508 0 00210 415.1V17.5c0-4.64-1.844-9.09-5.125-12.375A17.503 17.503 0 00192.5 0zM280 75.071a17.49 17.49 0 00-12.375 5.129 17.495 17.495 0 00-5.125 12.37v245.001a17.498 17.498 0 0026.25 15.156 17.498 17.498 0 008.75-15.156v-245c0-4.64-1.844-9.09-5.125-12.371A17.49 17.49 0 00280 75.07zM367.5 151.201a17.49 17.49 0 00-12.375 5.129A17.494 17.494 0 00350 168.701v95.203c0 6.25 3.336 12.027 8.75 15.152a17.486 17.486 0 0017.5 0 17.497 17.497 0 008.75-15.152v-95.203c0-4.641-1.844-9.09-5.125-12.371a17.49 17.49 0 00-12.375-5.129zM105 75.071A17.49 17.49 0 0092.625 80.2 17.495 17.495 0 0087.5 92.57v245.001a17.498 17.498 0 0026.25 15.156 17.498 17.498 0 008.75-15.156v-245c0-4.64-1.844-9.09-5.125-12.371A17.49 17.49 0 00105 75.07zM17.5 151.201c-4.64 0-9.094 1.844-12.375 5.129A17.493 17.493 0 000 168.701v95.203c0 6.25 3.336 12.027 8.75 15.152a17.486 17.486 0 0017.5 0A17.497 17.497 0 0035 263.904v-95.203c0-4.641-1.844-9.09-5.125-12.371a17.492 17.492 0 00-12.375-5.129z"/></svg>