<svg xmlns="http://www.w3.org/2000/svg" viewBox="0 0 32 32"><path fill-rule="evenodd" clip-rule="evenodd" d="M10.641 3H8.824A3.824 3.824 0 0 0 5 6.824v18.7l.021-.029a3.562 3.562 0 0 0 3.54 3.172h17.653a.786.786 0 0 0 .786-.786v-.38a.546.546 0 0 0-.296-.468c-.468-.255-1.328-.875-1.328-1.98 0-1.106.86-1.726 1.328-1.982a.53.53 0 0 0 .092-.062.529.529 0 0 0 .204-.406V3.943A.943.943 0 0 0 26.057 3h-9.07v12.693l-3.172-2.68-3.174 2.68V3zm13.935 20.01H8.562a2.095 2.095 0 0 0 0 4.19h16.094a3.397 3.397 0 0 1-.746-2.148c0-.857.29-1.53.666-2.043z"/></svg>