<svg width="56" height="56" fill="none" xmlns="http://www.w3.org/2000/svg"><circle cx="28" cy="28" r="27.5" fill="#FF4243" stroke="#000"/><circle cx="28" cy="28" r="24" fill="#fff"/><path fill-rule="evenodd" clip-rule="evenodd" d="M30 53V3h3v50h-3ZM18.993 9.659C19.705 8.362 20.87 7.467 22.466 7l.531.933c-1.063.934-1.856 1.36-2.126 2.334-.49.892-.317 2.362-.32 3.735-.005 2.926 1.13 6.632 2.534 11.223l.066.214c1.414 4.623 3.038 10.005 3.773 15.974.294 2.393-.292 4.169-1.258 5.493-.946 1.298-2.371 1.609-3.2 2.094l-1.595-.933c1.37-.694 2.292-1.832 2.658-2.334.63-.863 1.095-2.156.858-4.08-.712-5.776-2.284-11.004-3.7-15.633l-.14-.454c-1.342-4.381-2.553-8.338-2.547-11.568.003-1.595.288-3.056.993-4.339Z" fill="#FF4243"/><path fill-rule="evenodd" clip-rule="evenodd" d="M16.57 27.678c-.02.268-.041.536-.068.805-.062.61-.078 1.221-.078 1.858 0 .17.005.343.01.53l.002.082c.006.213.01.442.007.674-.007.46-.048.97-.208 1.469-.086.267-.257.573-.38.794l-.07.126a3.298 3.298 0 0 0-.165.333c-.037.093-.04.132-.04.132-.018.43-.096.846-.163 1.202l-.01.052c-.072.386-.129.707-.135 1.022-.032 1.674-.903 3.318-1.646 4.531.001-.002.002-.002.001 0l-.027.049-.076.145-.044.085-.163.312c-.071.135-.147.277-.209.381a1.774 1.774 0 0 1-.114.174.786.786 0 0 1-.23.209.755.755 0 0 1-1.137-.566v-.002a4.418 4.418 0 0 0-.062-.368l-.01-.047a7.532 7.532 0 0 1-.075-.424c-.04-.283-.068-.535-.095-.776-.039-.348-.075-.674-.14-1.034-.003-.021-.03-.098-.16-.235a4.183 4.183 0 0 0-.478-.403s-.002 0-.007-.005l-.02-.014-.048-.032-.021-.015a4.623 4.623 0 0 1-.2-.142 1.956 1.956 0 0 1-.245-.216 1.038 1.038 0 0 1-.265-.482c-.072-.327-.099-.665-.121-.945l-.01-.115c-.027-.323-.057-.577-.127-.805-.064-.211-.09-.257-.103-.278a.708.708 0 0 0-.153-.144 2.099 2.099 0 0 0-.172-.043l-.008-.002c-.074-.017-.19-.044-.303-.084a1.186 1.186 0 0 1-.457-.28c-.25-.255-.408-.595-.515-.89a7.135 7.135 0 0 1-.265-.982 12.302 12.302 0 0 1-.048-.247c-.256.404-.469.746-.62 1.18-.276.788-.728 1.474-1.503 1.956a.75.75 0 0 1-.792-1.273c.419-.26.687-.632.878-1.179.218-.623.543-1.133.81-1.552l.134-.212c.294-.471.51-.879.591-1.415v-.049l-.001-.016-.003-.087c0-.042 0-.097.003-.158.003-.039.009-.099.022-.163a.767.767 0 0 1 .709-.618.756.756 0 0 1 .668.334c.062.091.094.18.103.207.045.127.082.315.108.455.047.25.097.568.132.787l.024.155c.022.132.043.28.065.44.048.344.105.742.19 1.154.06.292.128.557.205.771.051.14.097.232.13.287l.079.019.015.003c.072.017.183.042.29.077.115.038.28.103.433.226.185.146.364.304.508.525.14.214.215.441.28.657.122.396.16.792.188 1.118l.01.124c.018.22.034.406.06.58a3.619 3.619 0 0 0 .196.134 2.402 2.402 0 0 1 .109.08c.17.13.416.317.629.54.22.23.475.567.553 1.009.032.177.06.363.084.55.534-.982.948-2.016.967-2.985.008-.458.09-.897.16-1.27l.002-.01c.073-.388.133-.708.145-1.026.018-.44.25-.87.387-1.124l.118-.214c.114-.206.186-.336.222-.447.094-.294.13-.635.136-1.033a15.026 15.026 0 0 0-.009-.692c-.004-.185-.01-.38-.01-.571 0-.659.017-1.326.085-2.008.08-.785.113-1.578.148-2.393l.003-.068c.035-.831.073-1.687.165-2.536.022-.2.044-.517.06-.795l.02-.349.005-.105.002-.057.002-.02c.005-.047.014-.11.034-.18a.826.826 0 0 1 .155-.298.774.774 0 0 1 1.03-.151.96.96 0 0 1 .265.27c.044.065.082.134.113.196.122.24.258.596.38.953.124.366.247.771.337 1.123.045.176.084.347.112.497.024.132.05.309.043.469-.045.838.029 1.426.124 2.183.037.295.077.616.114.988.012.111 0 .245-.006.308v.007l-.021.2.107-.085.005-.004c.057-.045.105-.083.151-.122.046-.038.08-.07.106-.097.025-.024.034-.037.035-.039a.752.752 0 0 1 .757-.33c.206.036.335.147.365.173a.8.8 0 0 1 .137.154v.001c.032.046.056.092.068.114.029.055.063.125.095.194l.124.267.086.188a.76.76 0 0 1 .756-.045c.234.117.33.313.353.362a.98.98 0 0 1 .083.286v.002c.015.11.02.237.021.333.003.166-.003.427-.004.462v.004c0 .153-.002.294-.004.428-.004.27-.008.514.007.77a6.26 6.26 0 0 0 .14.895c.06.3.132.655.158 1.019.041.563.13 1.128.224 1.727l.004.027c.039.248.074.49.108.725.134-.633.244-1.274.357-1.926.043-.253.087-.508.133-.765a.763.763 0 0 1 .588-.616c.28-.062.493.052.536.075l.002.001c.125.066.219.159.252.192.095.093.203.22.29.326l.139.168.006.008.117.143c.072.087.1.117.1.118l-.013-.01c.173.144.297.314.377.429l.08.118.015.022c.249-.094.535-.181.837-.228.395-.06.87-.06 1.327.14 1.285.562 2.578.56 4.139.56h.228c.842 0 1.576.138 2.326.76l.06.049c.284.236.374.312.478.362.072.035.191.075.563.083.007 0 .143-.019.392-.313.22-.262.414-.605.552-.883.121-.243.191-.518.258-.864.014-.067.027-.14.04-.216.053-.284.114-.62.21-.936.01-.03.021-.069.035-.106v-.002c.01-.024.042-.114.107-.205a.756.756 0 0 1 1.26.028.819.819 0 0 1 .099.214v.002a3.141 3.141 0 0 0 .013.037c.006.018.009.022.008.02.328.604.622 1.279.844 1.928.109.316.228.61.352.907l.073.173c.1.238.205.485.3.733.128.34.246.696.33 1.085.273-.362.391-.72.54-1.286-.004.01 0-.007.01-.071l.024-.146c.024-.148.055-.34.09-.53.033-.187.072-.389.113-.55.02-.075.046-.171.081-.259a.97.97 0 0 1 .107-.198.767.767 0 0 1 .632-.331c.251 0 .468.105.564.153.125.063.251.141.353.206l.12.077.16.102c.076.046.106.06.106.06h-.004c.31.11.6.193.933.287l.237.068c.378.108.9.096 1.366-.067.467-.163.762-.43.872-.728.069-.184.193-.517.454-.755.34-.31.763-.356 1.157-.262.46.11.89.3 1.262.472l.209.097c.301.142.563.264.832.36a1.096 1.096 0 0 1 .588.48l.067-.032a.75.75 0 1 1 .682 1.336 2.984 2.984 0 0 1-.551.217 1.627 1.627 0 0 1-.442.06 1.041 1.041 0 0 1-.65-.225 1.197 1.197 0 0 1-.354-.482c-.29-.112-.576-.246-.832-.366l-.18-.084a6.343 6.343 0 0 0-.821-.331l-.015.038c-.317.852-1.055 1.367-1.784 1.621-.73.255-1.57.295-2.274.092l-.215-.06a15.704 15.704 0 0 1-1.047-.325 1.853 1.853 0 0 1-.296-.142l-.04.242-.031.193-.001.005c-.007.037-.018.106-.032.157-.177.678-.372 1.321-.936 1.992-.064.076-.132.161-.21.26l-.018.023c-.07.09-.149.188-.229.285-.17.206-.38.446-.623.636a.777.777 0 0 1-.916.042.839.839 0 0 1-.316-.403l-.001-.001a1.526 1.526 0 0 1-.082-.378c-.02-.183-.021-.4-.021-.4-.02-.641-.165-1.16-.37-1.7-.085-.22-.176-.437-.275-.673a15.934 15.934 0 0 1-.46-1.172 3.488 3.488 0 0 1-.119.266c-.156.314-.412.783-.75 1.183-.31.367-.842.858-1.566.844-.459-.009-.83-.06-1.188-.232-.28-.136-.523-.34-.75-.53l-.092-.077c-.39-.323-.738-.415-1.368-.415h-.303c-1.492.004-3.082.007-4.665-.685-.105-.046-.266-.067-.497-.031a3.02 3.02 0 0 0-.704.216 1.148 1.148 0 0 1-.912.017 1.378 1.378 0 0 1-.538-.432 4.62 4.62 0 0 1-.186-.262c-.078.432-.16.867-.25 1.294-.038.175-.273.985-.486 1.7a96.357 96.357 0 0 1-.409 1.334 3.765 3.765 0 0 1-.07.19c-.005.01-.023.05-.053.096a.762.762 0 0 1-.303.27.751.751 0 0 1-.48.062.775.775 0 0 1-.443-.267.866.866 0 0 1-.11-.172 1.288 1.288 0 0 1-.074-.194 3.597 3.597 0 0 1-.075-.313 9.418 9.418 0 0 1-.068-.377l-.005-.031c0-.007-.001-.01-.002-.01 0-.001 0-.001 0 0a50.615 50.615 0 0 1-.29-1.916c-.058-.425-.115-.841-.177-1.236l-.008-.052a22.1 22.1 0 0 1-.234-1.826c-.02-.268-.074-.54-.14-.871a7.642 7.642 0 0 1-.16-1.064 11.706 11.706 0 0 1-.01-.807.776.776 0 0 1-.498-.238 1.097 1.097 0 0 1-.123-.153 2.673 2.673 0 0 1-.143-.242 9.803 9.803 0 0 1-.184-.37c-.084.071-.164.137-.24.198-.287.236-.516.423-.74.683a.854.854 0 0 1-.443.277.78.78 0 0 1-.816-.298.91.91 0 0 1-.155-.356 1.457 1.457 0 0 1-.027-.215c-.014-.229.01-.538.035-.808.021-.231.05-.476.074-.684a53.835 53.835 0 0 0 .046-.426 2.36 2.36 0 0 0 .005-.064c-.017-.17-.036-.335-.056-.497Zm6.212 6.327Zm-.34 4.944-.001-.003v.003Zm-5.663-9.19-.008.008.008-.009Z" fill="#000"/></svg>