<svg width="118" height="118" fill="none" xmlns="http://www.w3.org/2000/svg"><path d="M58.5 118V16.857c-4.5 0-13 .992-19 5.95-3.808 3.146-8 11.899-8.5 23.302-3-.495-3.991.447-4.5 2.975-.509 2.528.5 5.288 1.5 6.445 3 3.471 5.193 5.063 5.5 5.454 3.5 4.462 5 10.577 8.5 14.874 0 2.48 0 4.462-2.5 6.941-3.5 3.47-13 9.42-17.5 13.883-6.52 6.464-7 12.89-7 21.319h43.5Z" fill="#FFD098"/><path d="M58.5 118V16.857c4.5 0 13 .992 19 5.95 3.808 3.146 8 11.899 8.5 23.302 3-.495 3.991.447 4.5 2.975.509 2.528-.5 5.288-1.5 6.445-3 3.471-5.193 5.063-5.5 5.454-3.5 4.462-5 10.577-8.5 14.874 0 2.48 0 4.462 2.5 6.941 3.5 3.47 13 9.42 17.5 13.883 6.519 6.464 7 12.89 7 21.319H58.5Z" fill="#F1BA85"/><path fill-rule="evenodd" clip-rule="evenodd" d="M31.5 46.605c.833 3.47 2.574 10.329 6 13.387 5 4.462 8.5 6.94 10.5 7.437 1.333-1.488 6.1-4.463 10.5-4.463s9.167 2.975 10.5 4.462c2-.495 5.5-2.974 10.5-7.436 3.426-3.058 5.167-9.916 6-13.387 0 15.37-6.454 25.39-9 28.756-3 3.967-5.5 5.95-8.5 7.933-3 1.983-6.5 2.975-9.5 2.975s-6.5-.992-9.5-2.975-5.5-3.966-8.5-7.933c-2.546-3.365-9-13.386-9-28.756Z" fill="#0A2F3D"/><path fill-rule="evenodd" clip-rule="evenodd" d="m40 81.31.5 19.337c1.5 5.454 7.2 11.899 18 11.899s16.5-6.445 18-11.899l.5-19.336 7.5 6.445c0 1.275-.073 2.904-.154 4.715-.233 5.232-.535 11.984.654 16.109 1.6 5.553 8 8.594 11 9.42H21c3-.826 9.4-3.867 11-9.42 1.189-4.125.887-10.877.654-16.11-.081-1.81-.154-3.439-.154-4.714l7.5-6.445Z" fill="#7A917B"/><path d="M52.5 70.681c0-.476.264-.918.693-1.135 4.177-2.112 6.72-2.1 10.663.006.4.214.644.633.644 1.084 0 .983-1.089 1.585-1.986 1.168-2.778-1.293-4.986-1.263-8.031.087-.91.403-1.983-.22-1.983-1.21Z" fill="#FFD098"/></svg>