<svg width="64" height="64" viewBox="0 0 64 64" fill="none" xmlns="http://www.w3.org/2000/svg">
<path d="M32.5 0C31.813 0 31.1536 0.272806 30.6679 0.758206C30.1821 1.2442 29.9091 1.9024 29.9091 2.589V61.411C29.9091 62.3357 30.403 63.1903 31.2045 63.6533C32.0061 64.1156 32.9939 64.1156 33.7955 63.6533C34.597 63.1903 35.0909 62.3357 35.0909 61.411V2.589C35.0909 1.90254 34.8179 1.2442 34.3321 0.758206C33.8464 0.272806 33.1871 0 32.5 0V0ZM45.4545 11.1062C44.7676 11.1062 44.1082 11.379 43.6224 11.865C43.1366 12.3504 42.8636 13.0086 42.8636 13.6951V49.941C42.8636 50.8664 43.3575 51.7211 44.1591 52.1834C44.9606 52.6457 45.9484 52.6457 46.75 52.1834C47.5516 51.7211 48.0455 50.8664 48.0455 49.9412V13.6952C48.0455 13.0088 47.7724 12.3504 47.2867 11.865C46.8009 11.379 46.1417 11.1062 45.4545 11.1062V11.1062ZM58.4091 22.3691C57.7221 22.3691 57.0627 22.6419 56.5769 23.1279C56.0912 23.6133 55.8182 24.2715 55.8182 24.9579V39.0427C55.8182 39.9673 56.3121 40.822 57.1136 41.2843C57.9152 41.7472 58.903 41.7472 59.7045 41.2843C60.5061 40.822 61 39.9673 61 39.0427V24.9581C61 24.2716 60.727 23.6133 60.2412 23.1279C59.7555 22.6419 59.0962 22.3691 58.4091 22.3691ZM19.5455 11.1062C18.8585 11.1062 18.1991 11.379 17.7133 11.865C17.2276 12.3504 16.9545 13.0086 16.9545 13.6951V49.941C16.9545 50.8664 17.4484 51.7211 18.25 52.1834C19.0516 52.6457 20.0394 52.6457 20.8409 52.1834C21.6425 51.7211 22.1364 50.8664 22.1364 49.9412V13.6952C22.1364 13.0088 21.8634 12.3504 21.3776 11.865C20.8918 11.379 20.2326 11.1062 19.5455 11.1062V11.1062ZM6.59091 22.3691C5.90395 22.3691 5.24452 22.6419 4.75877 23.1279C4.27301 23.6133 4 24.2715 4 24.9579V39.0427C4 39.9673 4.4939 40.822 5.29545 41.2843C6.09701 41.7472 7.08481 41.7472 7.88636 41.2843C8.68792 40.822 9.18182 39.9673 9.18182 39.0427V24.9581C9.18182 24.2716 8.90881 23.6133 8.42305 23.1279C7.93729 22.6419 7.27802 22.3691 6.59091 22.3691Z" fill="#0029F8"/>
</svg>
